<!--version="1.0" encoding="UTF-8" standalone="no"--><svg viewBox="0 0 800 800" version="1.1" width="800" height="800" xmlns="http://www.w3.org/2000/svg"><defs id="defs4"><style id="style2">.cls-1 { fill: rgb(171, 157, 150); }.cls-2 { fill: rgb(243, 220, 201); }.cls-3 { fill: rgb(210, 165, 140); }.cls-4 { fill: rgb(255, 255, 255); }.cls-5 { fill: rgb(207, 198, 185); }.cls-6 { fill: rgb(244, 238, 233); }.cls-7 { fill: rgb(211, 189, 173); }.cls-8 { fill: rgb(209, 169, 141); }.cls-9 { fill: rgb(33, 60, 76); }.cls-10 { fill: rgb(115, 177, 197); }.cls-11 { fill: rgb(5, 18, 40); }.cls-12 { fill: rgb(158, 226, 242); }.cls-13 { fill: rgb(207, 165, 139); }.cls-14 { fill: rgb(218, 174, 152); }.cls-15 { fill: rgb(201, 190, 181); }.cls-16 { fill: rgb(170, 156, 149); }.cls-17 { fill: rgb(237, 225, 215); }.cls-18 { fill: rgb(151, 139, 128); }</style></defs><path class="cls-1" d="M641.8 558.3s-15.6 2.1-17.5 13.1c-2 12 6 17 12.8 22.7 5.3 4.5 3-18.6 3.3-22.6.5-4.5 6.5-18.5 1.5-13.1z" id="path6"/><path class="cls-1" d="M506.4 611.4s-30 20-30 30-1.4 28 7.8 31.5c9.1 3.4 24.1 10.4 24.1 10.4s-14-23-8-33a96 96 0 0 0 9.2-23.3c0 .1 4.8 35.4 13.9 38.4 9 3 20.3 6.2 20.3 6.2s-22-15.2-11.7-41.2 18.3-38 18.3-38-4 36 18 50-12-10 5-40 24-33 24-33l-39-3z" id="path8"/><path class="cls-2" d="M198.8 811.4h436.9s-15.4-53.7-30.4-59.7-24-14-41-19-25-23-45-19a42 42 0 0 1-43.5-19c-7.5-12-10.5-65-10.5-65l-100 30-10 36.7-9 12.3s-12 7-22 8-14-2-31 3-23 17-33 21-30 9-40 21-21.5 49.7-21.5 49.7z" id="path10"/><path class="cls-3" d="m359.4 668.4 112-36s-3.8 55.2 1 59.1c5 4 11.3 1 7 5-4.4 4 4.6 17.9-36 29-31 8.3-74.4 8.5-107 29-4.4 2.6-21 17.2-35 18-18 1-2.4-24-2-29 1-16 23.7-25.8 23.7-25.8l29.4-11.3z" id="path12"/><path class="cls-2" d="m286.4 181.4-117 190.8S160 517 185.8 564.8c25.7 47.6 33.8 53.7 65.2 67.2 31.4 13.4 46.8 24.7 84 34 37.3 9.4 30.3 4.4 48.3 2.4s82.9-35.2 101-40c42-11 68-52 72-56s22 2 37-1 31-8.4 40.5-14.7a78.4 78.4 0 0 0 25.6-23.3 93.3 93.3 0 0 0 12-33c2-12 9.4-56.2-6.8-60.6-16.3-4.4-42.2-30.4-42.2-30.4l-240-262z" id="path14"/><path class="cls-4" d="m308.6 717.7-44.3 21.7s-15 43-16 48-5.8 24.7-5.8 24.7h61.3c0 .1-15.4-19.6-10.4-44.6 5-25 15.2-49.7 15.2-49.7z" id="path16"/><path class="cls-4" d="m521.3 716.4 47 16s-28.3 50-27 55c1.4 5-7 25-7 25H451s23.1-30.3 37.3-52c19-29 33-44 33-44z" id="path18"/><path class="cls-5" d="m226.4 766.4 24 5 10-27s-21 7-25 11a109.2 109.2 0 0 0-9 11z" id="path20"/><path class="cls-5" d="M294.4 773.4s-4.8-7-16-8.5a46.8 46.8 0 0 0-21 2.4s9-23 13-28 29-15 33-17 4 1 4 1z" id="path22"/><path class="cls-6" d="M180.2 432.7s12-6 44.2-3.8c32.3 2.2 61.5 16.4 63.8 21.7 2.2 5.2.7 36.7-11.3 48.7s-20.3 15-27.8 15-27-4.5-38.3-12.7a93.2 93.2 0 0 1-27.8-36c-5.3-12.8-3-33-3-33z" id="path24"/><path class="cls-6" d="M540.7 428.7s-15.6-6-57.7-3.8c-42 2.2-80.2 16.4-83.2 21.7-2.9 5.2-1 36.7 14.7 48.7a88.2 88.2 0 0 0 37.8 18c13.5 2.7 39.7.2 53-9 14-9.5 24.7-30 31.5-42.7 6.9-12.8 4-33 4-33z" id="path26"/><path class="cls-7" d="M234.4 461.4s-24-1-32-1a92 92 0 0 0-17 2l-2-27 46-4z" id="path28"/><path class="cls-7" d="M400.4 469.4s19-6 26-7 72-13 87-10 23 5 23 5l5-33s-113 6-119 9.6a751 751 0 0 1-24 12.4s.1 9.3.4 12.2c.5 4.8 1.5 10.8 1.5 10.8z" id="path30"/><path class="cls-8" d="M294.4 451.4c8-8 16.4-15.2 24-22.8l1.4-1.4 1.3-1.4 2.8-3 2.4-2.8.9-1.3 1-1.5c1.3-2.2 2.5-4.5 3.7-6.9l3.5-7.2c4.7-9.7 9.4-19.6 14.4-29.5a294.5 294.5 0 0 1 16.6-29 149.6 149.6 0 0 1-3.1 16.5c-1.2 5.5-2.8 10.9-4.4 16.2a242.2 242.2 0 0 1-12.2 31.2 156 156 0 0 1-4 7.6 86.5 86.5 0 0 1-4.6 7.5l-1.4 2-1.7 2c-1 1-2.1 2.1-3.3 3a78.6 78.6 0 0 1-6.8 5.5A121.5 121.5 0 0 1 310 445a108.5 108.5 0 0 1-15.6 6.4z" id="path32"/><path class="cls-8" d="M401.4 368.4c5-17.2 11-34 17-50.6l9.4-24.9 4.7-12.4 4.5-12.3a168.7 168.7 0 0 0 2.4-7.5l.4-1.3.2-1.2V256l.2-.5v-.4l.2-.5a6.5 6.5 0 0 1 .7-1.4 5.7 5.7 0 0 1 1-1 6.5 6.5 0 0 1 1.6-1.2 6.7 6.7 0 0 1 2.6-.8 7 7 0 0 1 2.2.3 6.3 6.3 0 0 1 1.3.5 6.7 6.7 0 0 1 .8.5 8.2 8.2 0 0 1 .9.7l.4.5.3.4a11 11 0 0 1 1 1.4l.6 1a178.4 178.4 0 0 1 3.7 9.9l8.2 25.2c2.7 8.4 5.5 16.7 8.5 25a198.2 198.2 0 0 0 7.7 18.1 33 33 0 0 0 3.6 5.6c-3.8-2.5-6.9-6-9.6-9.6a117.4 117.4 0 0 1-7.5-11.4 251 251 0 0 1-12.2-24c-3.7-8.2-7-16.6-10.3-24.8l-2.4-6-1.2-2.7-.2-.4.1.1v.2l.4.4a6.3 6.3 0 0 0 .6.6 6.8 6.8 0 0 0 .8.5 6.7 6.7 0 0 0 1.2.6 6.4 6.4 0 0 0 4.6-.5 6 6 0 0 0 1.5-1 6.3 6.3 0 0 0 1.5-2.3l.2-.3v-.9 2.6l-.4 2.2-.5 1.8-.4 1.8-1 3.4-1.1 3.3a535.4 535.4 0 0 1-48 96z" id="path34"/><path class="cls-8" d="M520.3 332.4a150.8 150.8 0 0 1 10.7 11.4 262 262 0 0 1 18.6 24.4c3 4.2 5.7 8.5 8.4 12.8l.7 1.1v1.1c.3 6.5.4 12.8.2 19.2a153 153 0 0 1-1.7 19.2A153 153 0 0 1 552.8 402.7c-1.2-6.3-2-12.6-2.8-19l.7 2.1q-4.4-6.2-8.6-12.6a281.5 281.5 0 0 1-15.2-26.6A151 151 0 0 1 520.3 332.4z" id="path36"/><path class="cls-9" d="M285.4 473.4c0 23.2-13.3 42-29.5 42-16.4 0-32-18-35.6-41-9-57 19.2-43 35.5-43 16.1 0 29.4 18.8 29.4 42z" id="path38"/><path class="cls-10" d="M282.4 492.4c0 10.3-12.7 21-24.5 21-12 0-30.6-14.7-30.6-25 0-10 20-17 32-17 11.8 0 23 10.8 23 21z" id="path40"/><path class="cls-9" d="M436.6 464.5c0 25.4 14.8 46 33 46s35.7-19.8 39.8-45c10-62.2-21.5-47-39.8-47-18.2 0-33 20.6-33 46z" id="path42"/><path class="cls-10" d="M440 485.3c0 11.2 14.1 23 27.4 23 13.3 0 34.2-16.2 34.2-27.4 0-11-22.6-18.6-35.9-18.6-13.3 0-25.7 11.7-25.7 22.9z" id="path44"/><ellipse class="cls-11" cx="467.77002" cy="462.31595" rx="11.4" ry="15.31" id="ellipse46"/><ellipse class="cls-12" cx="481.82001" cy="488.01596" rx="5.29" ry="4.9200001" id="ellipse48"/><path class="cls-8" d="M183.4 403.3a664 664 0 0 1 10.5-31.4 1225 1225 0 0 1 24-61.5c4.2-10.1 8.5-20.2 13-30.2l22.4-50.6-6 55.3-1.4 13.3-1.5 13.2-.8 6.7-.9 6.6-1.7 13.2a1502.3 1502.3 0 0 1-5.8 39.6c-.5 4.5-1.2 8.9-2 13.2l-13.7-4.7 6.3-9.3 6.4-9.3 13-18.4q6.7-9.2 13.6-18.2 6.8-9 14-17.9-4.4 10.4-9.4 20.6l-10 20.3q-5 10-10.4 20l-5.3 10-5.5 9.9-16.2 29.4 2.5-34.4 1-13.3 1.3-13.3 2.7-26.5 1.6-13.4.9-6.6.7-6.6 1.7-13.3 1.8-13 16.5 4.6q-7.2 14.8-14.7 29.5a1617.4 1617.4 0 0 1-31.4 58c-5.5 9.5-11.2 19-17.2 28.3z" id="path50"/><path class="cls-13" d="M618.3 468.4S601.8 488 602.8 494s4 20 3 25-18 19-18 21 8 2.1 15 2c20.5-.6 26.5-11.6 29-19 2-6.1 4-18 3-27s-2-20-1-20 4-7.7 10-4.9c6 3 12 16 12 16s3.5-23.6-2.5-26.6c-3.6-1.8-17-5-32 27-2.5 5.5-3-19-3-19z" id="path52"/><path class="cls-14" d="M150.2 501.8s24.2 20.6 25.2 21.6 4.5 31.4 4.5 31.4-15.3-5.5-23.5-23.5c-8.1-17.9-6.2-29.5-6.2-29.5z" id="path54"/><ellipse class="cls-11" cx="257.53003" cy="471.43594" rx="10.18" ry="14" id="ellipse56"/><ellipse class="cls-12" cx="244.99004" cy="494.93594" rx="4.73" ry="4.5" id="ellipse58"/><path class="cls-15" d="M515.5 326.4a528.7 528.7 0 0 0 24.6 54c1.7 2.7.5-.6 2.4 2 .2.5 3.7 4.7 4 5 .5 1-19.2-11-28-20a241.3 241.3 0 0 1-35-44c-14.7-24-29.8-47.7-38.4-74.6-.4-1.4-1-2.7-1.5-4l-.6-.3A8 8 0 0 0 442 246.2c-3.2 20.9-9.3 41-16.6 60.8-12.2 32.9-72 119.4-71.2 118.4l-6 7c4.7-4.2-2.1-.5 1-6 5.3-9.4 4.7-16.7 8-27a347.4 347.4 0 0 0 12-49c1.7-10.3 5.3-19.7 6.8-30 .2-1.3.1-2.6.2-4.3-1.4 1.5-1.6 3-2.1 4.3-13.8 36.6-32.6 70.1-52 104.1a279 279 0 0 1-24 31c1-1.7-1.7-3.2-2-5-.8-6.2-.2-8.7-1-15-1.5-12.4-3.5-25.5-5-38-1.1-10-2.8-20-4-30-.4-3.8-2.5-7.1-3-11-.8-7.2-1-14.8-2-22-.9-7.6-5-15-5-22.7l-.2-1.8c-1-.4-1.2.3-1.4.9-5.3 12.1-11.8 23.8-17.8 35.7-3.4 6.9-7 13.7-10.3 20.7-3.7 7.3-14.5 14.7-14.1 12 .7-5.7 3.3-4.2 4-10 1-8.4 1.1-15.5 2-24 1-10-1-16.9 0-27l1-21a159 159 0 0 0-12 16c-13.5 20.8-24.3 44.3-35.7 66.2a480.5 480.5 0 0 0-20.8 45.1 30.6 30.6 0 0 0-2.3 13.6c.9 13 2 26 4.5 38.8 2.5 12.2 8 22.1 13.2 33.4 4 8.7.3 10.1 7 17a9 9 0 0 1 2 4c.1 1.4-9.8-3.6-11-4-.3 0-4.8 29.2-5 29-3.5-1.8-10.7-9.2-14-11-14.5-7.7-15.8-30-17-41-1-1 .8-2.2-.1-3.3h-.8l1 7.5c1.5 14.3 3.7 13.8.9 28-.5 2.4-.2-4.5-1-2-.3.8-2.4 7.2-3 8-.3.2 1.2-11.6 0-17-4-17.5-14.7-17.9-21-34.6a11.6 11.6 0 0 0-.8-1.4c-1.4 1-1 2.3-1.1 3.5-.6 8-4.2 13-7.1 20.4-4.5 11.3-24.6 28.8-24 28 3.5-4.6 8-23.1 7-29-.6-3.1.3-7.8 0-11-.6-6.4-.4-11.7-2-18-2.6-9.8-6.8-22-8-32-.5-3.5-.6-9.5-1-13-.1-.4-5.4 3-5.7 2.3-1.5.9-3.7.5-4.3 1.7-4.6 9-10.3 14.6-17 22-4.8 5.3-29.7 17-27.6 13.7 3-4.6 11.5-8.5 13.6-13.6 5.5-13.5 7.9-27.7 11-42a290.5 290.5 0 0 0 5-35c.7-8 5.4-15.9 5-24-.3-5.4 3.7-15.5 4-21 .4-8.9-2.7-13.5 0-22 .4-1.3-5.6-2-5-4-2 1.2-2.7 2.6-3.5 3.9a163.7 163.7 0 0 0-18.6 38c-4.5 13.1-10 24.3-11 38.1-.6 7.6-1.7 4.6 0 12 .3 1.7 3.2 6 3 8-2.1.2-5.6-11.8-6-13-3.7-9.5-3-5.9-4-16-.8-7.8 0-12 0-20-.2-15.1 4.7-29.2 8-44 7.6-34.8 25-63 42-95 .7-1 2-8.5 3-10-2 0-8 .5-9 1-7 3.6-12.4 4.5-20 6a51.5 51.5 0 0 1-29-1c-2.8-.7-5.2-.8-.5-2.6 7.4-2.8 14.5-4.3 21.4-8.4 37.9-15.6 34.5-20.2 48-32 12-10.4 18.3-23.7 29-35.4 4.8-5.3 9.6-10.4 12.8-16.9a6.4 6.4 0 0 1 1.2-1.4c5.5-5.8 11-11.8 16.7-17.4C204.7 57 270.7 26.7 319.5 11.4c15.4-4.8 27.9-4.8 44-7 13.2-1.8 28.6-3.4 42-2 10.2 1.1 20.5.6 30 5a39.4 39.4 0 0 1 26 34c0 1 3.4 0 3.6.7.8 1 1.4.4 2 .3a65 65 0 0 1 26.1-2.8A162 162 0 0 1 543 52.2 306.4 306.4 0 0 1 603.2 87a418.8 418.8 0 0 1 78 74.8 419.2 419.2 0 0 1 31.9 44.8c3 5 6.5 9.6 9.7 14.4 1.5 2.3 5.8 2.7 6.7 5.4.2.9 2.3 1.4 3 2 10.8 10.6 19.3 20.7 33.4 26.3 5 2 8 .8 13.6-.3.4 0-19.4 1.8-29-1-11.3-3.2-18-8-31.1-9-1.2-1-2.4-1.7-3.7-2.4h-.4c-.5 1-3.2 1.6-2.8 2.4 10 25 18 52 24.7 77.8 1.4 8.4 2.8 16.8 5.6 24.9a137.5 137.5 0 0 0 20.2 38.3 132.6 132.6 0 0 0 9.6 10.8c2.6 3 7.5 1.6 11 3.4 3 1.6-3.3 3.6-4 4-2 1.2-28.6-11.2-43-28-1-1.2-7.3 2-9 0l1 7c2.7 16.6 1.3 32.3 1 49-.3 13-3.3 25.4-6 38-1 5-5.7 9.3-6 9-.6-.3 2.5-4 1.9-10.8a164.6 164.6 0 0 0-5.6-29.3 16.7 16.7 0 0 0-1-2.1c-.4.9-6.3-3.1-6.4-2.8-.8 11-6 15.3-8 30-5.8 11.9 1 28.6 8.3 39 5.2 7.3 5 4.8 13.7 7l9 3c.5.3-25.7 1.5-38-5-6.4-3.4-11-3.5-14-9 .6-2.2-.6-1.8-.1-4 1.1-5.7.8-11.3 0-16.9a75.4 75.4 0 0 0-10.2-28.9 34.7 34.7 0 0 0-7.7-9.2c-2.6-2-5.3-3.6-8.8-3-1.5 1-3.6 1.6-4.1 3-5.6 15.5-10 31.8-17.6 46.4-2.2 4.3-7 6.5-9.4 10.6a12.7 12.7 0 0 1-2 3c-.4.4.8 1.8.3 1.6a2 2 0 0 1-1-1.5 11.1 11.1 0 0 1 .4-2.8l4-18.9c0-.4-.7-6.6-.6-7.4-1.6.8-4.3 5-5 6a194.4 194.4 0 0 1-53 55c-4.4 3.3-8.7 3.9-7 3 2.5-1.2 2.5-2 4.3-5.5a225 225 0 0 0 13-31.7 24.8 24.8 0 0 0 .6-2.8c-1.5 1.6-4.1-2-4.9-1-8.1 9.7-39.4 35.7-36 30.7 7-10.4 12.2-21.8 16.3-33.7a253.5 253.5 0 0 0 11-47.4 331.7 331.7 0 0 0 3-52.3v-4.6a6.3 6.3 0 0 0-1-.8c-2.3-4.8-5.4-13.8-10.3-19.8-7.1-8.5-14.6-20.3-20-30-3.4-6-12-5.2-15.2-11.2a7.1 7.1 0 0 0-2-2.3c-.2.6.7 3 1.3 4.4z" id="path60"/><path class="cls-16" d="M67.3 314.4s-32.2 52.5-26 36c3.8-10 18-41 31-66 5.8-11 49-60 49-60s-24 70-31 95c-4.3 15.7-29.9 83.9-29.9 83.9" id="path62"/><path class="cls-1" d="M706.2 308a6.8 6.8 0 0 1 1.8 1.3 10 10 0 0 1 1.2 2.6l26.6 66c.4 1 1.3 2 .2 3-.7.7-1.8.5-3.3-.9-4.2-3.6-8.4-7.2-12.4-11a7.3 7.3 0 0 1-1.6-3.4l-6-22.2-8-29.5-1-3.8c-.2-1.3.7-2 2.5-2.2z" id="path64"/><path class="cls-16" d="m121.8 476.3-1.3 6.5c-2.8 12.3-2.8 23.8-9.2 34.6-1.9 3.3-7.5 12.1-10 15-2.2 2.7-4.2-2.8-8.2-2.9-1.3-1.2 1.3-2.5 1.3-4v-22c0-13.2-3.1-25.3-4.8-38.3-1.7-13-1.3-26.2-1.7-39.2l-.3-14.4a5.8 5.8 0 0 0-1-3.7l-1.4 4.7a101.8 101.8 0 0 1-15.7 35.7c-3.7 4.8-7.8 10.7-13 14-1.7 1.1-10.4 8.7-13 9 .3-1.3 5.6-11.6 5.9-12.6 4-13.7 10.1-28.7 14.1-42.4 5.1-17.1 10.7-32.9 16-50 4.4-14 7.2-27.4 13-41 .7-1.4 2.2-5.5 2.5-5.8 1.1.3.5 9.3.4 13.1a215 215 0 0 0 12.7 82c1.1 3.4 2.6 6.7 4 10.1l2.4 4.7a4.7 4.7 0 0 0 .3-3.4 63.7 63.7 0 0 1 0-15.7 52.6 52.6 0 0 1 1.3-6.1 1.5 1.5 0 0 1 1.8-1 2.5 2.5 0 0 1 1.3 1 5 5 0 0 1 .4 2 197.8 197.8 0 0 0 9.7 48.2 35.5 35.5 0 0 0 1.6 4l13.3 28.7a6.8 6.8 0 0 1 .4 2.9 24.5 24.5 0 0 1-.3 4.6 91.5 91.5 0 0 0-1.7 13.4 93 93 0 0 1-1 7.4c-1.6.4-1.4-1-2-2-2.8-5.1-6.4-13.8-9-19-2.6-5.4-4.7-10.9-7-16.3a11.2 11.2 0 0 0-1.5-1.7z" id="path66"/><path class="cls-16" d="M74 217A10 10 0 0 1 75.2 214.4c.7-.8 1.8-1.4 2.6-2.1 4.3-4 10-6 14.5-9.9 37-32 82.9-48 85-49 1 .8-72.2 44.2-90 69-4.1 5.9-12.2 17-16 23-1.3 2.2 2.4 0 5-6.9a58.2 58.2 0 0 0 3.6-13.4 27.3 27.3 0 0 0 0-4.7c0-1.7-1-3.3-3.3-3.2-.6.2-1.2 0-2.7 0z" id="path68"/><path class="cls-16" d="M678.3 381.4a126.5 126.5 0 0 0 0-19.5A530 530 0 0 0 654 245c-1.9-5.8-4.2-11.4-6.3-17.1-.6-1.7-.3-3 .7-3.2 1.5-.2 2 1 2.4 2l2 5c11.5 30.2 56.4 130.2 63 147.6 4.9 13 9 26.4 11.2 40.2a88.2 88.2 0 0 1 1.3 11 67.3 67.3 0 0 1-.5 10l-2 15.1-.1 1.5c-.3 1.8-1 2.9-2 3a3.2 3.2 0 0 1-3-2.1 66 66 0 0 1-2.8-6 142 142 0 0 0-8.4-18.5l-2.9-4.5a5 5 0 0 0-1.6 3.6c-.6 4.4-1 9-1.9 13.3-1 4.7-2.4 9.5-3.8 14.2a7.5 7.5 0 0 1-1.3 2.5 1.5 1.5 0 0 1-2.3.2 8.8 8.8 0 0 1-1.8-2.3l-5.2-8.5a15.4 15.4 0 0 0 0 2.6 79.8 79.8 0 0 0 5.4 15.4c2 4.4 4 8.8 5.7 13.3a87.4 87.4 0 0 0 10 19l1.2 1.6c1.2 2.1.5 4.1-1.9 4.3a12 12 0 0 1-5.3-.4 88.8 88.8 0 0 1-23.4-12.8 20.9 20.9 0 0 1-3-3.2 7.5 7.5 0 0 1-2-5.2l.3-5.3c.3-10.2-.5-20.1-4.4-29.7-.7-1.5-1.1-3-1.7-4.5-3.4-9.7-13.6-12.8-19-21.5a3.2 3.2 0 0 1-2-3.4l.1-6.7.4-37a161.3 161.3 0 0 0-2.4-29l-7.6-44c-1-5.5-2.5-10.9-3.8-16.3 0-.3-.3-.7-.2-1 .2-.5.4-1.2.9-1.4a2 2 0 0 1 1.7 0 13.5 13.5 0 0 1 2.2 3.2c3.4 6.7 6.8 13.5 10 20.3a625.6 625.6 0 0 1 25.5 66.8l1.6 4.4z" id="path70"/><path class="cls-16" d="M293 223.8c-.2 1.3-.4 3-.8 4.6-3 14.1-5 28.4-6.5 42.9a14 14 0 0 1-1.5 4.6c-6.2 12.4-12.6 24.9-18.8 37.5-1.4 2.7-2.2 5.7-3.3 8.5a41.8 41.8 0 0 1-2.2 5c-.7 1-2.3 1.4-2.8.6a4.8 4.8 0 0 1-.6-2.8 30 30 0 0 1 1.3-4.7l30-94a36.4 36.4 0 0 1 1.6-4.6 2.4 2.4 0 0 1 1.7-1.1c1-.2 1.5 1 1.8 2a11.6 11.6 0 0 1 .2 1.5z" id="path72"/><path class="cls-17" d="M242.6 46.4s-24 0-81.7 57.8c-57.8 57.7-54.4 64.5-68.6 74.2-14.3 9.8-53.5 42.8-58 45-4.5 2.3 19.2-1 32-4 12.7-3 49.2-35.5 71-52 21.7-16.5 25-25.7 31.8-32.5 6.7-6.8 73.5-88.6 73.5-88.6z" id="path74"/><path class="cls-16" d="M473 72.1c0 .1 20.7-1.9 35 3.1 26 9.1 54 36.1 54 36.1 0 .1-35-19.9-49-25.9-12.2-5-40-8.9-40-8.9z" id="path76"/><path d="M197 812.1c3-23.9 13.8-47.5 33.6-62.7a98.4 98.4 0 0 1 28.8-15 30.8 30.8 0 0 0 5.8-3.1c5.5-3.3 10.7-7 16.3-9.8a79.5 79.5 0 0 1 16.2-6.2c6-1.5 17.3-1.4 23.4-1 13.3.7 24.7-5 31-16 1.9-1.6-.5-12.7-1-16-.7-6.2-7-9-12-10.2-1.3-.3-3.2 1-4.5 2-6 4-11.7 8.6-18 12.2-3 1.8-7.2 1.9-11.1 2.8 0-1.1 0-1.6.2-1.7 13.6-8.9 6.7-24.8-3.4-29.7-9-4.5-18.6-8-27.8-12a329 329 0 0 1-62.3-33 70 70 0 0 1-29-42c-1-4.5-3.5-7-7.5-9.3a61.6 61.6 0 0 1-24.7-24.7l-4.4 20H145a74 74 0 0 0-6.5-31.6c-3.5-8-7.6-15.7-12-24.7-3.5 6.4-6 12-9.3 16.8a199.3 199.3 0 0 1-15 20.1c-5 5.9-11.8 8.9-20.1 10.6 13.7-15 12.6-32.2 10.4-49.3-2-15.5-5.5-30.8-8.4-46.1-.6-3.4-1-6.8-1.3-9.4-8 8.8-15.7 18.5-24.7 26.6-9 8.2-19.5 14.5-32.7 12.9 16.5-8.8 20.7-25.2 24.2-41 4-18.8 6.1-38 8.8-57 2.5-18.4 4.7-36.9 7-55.3a26.9 26.9 0 0 0 .4-4.5 135.2 135.2 0 0 0-23.2 46.6c-4.8 17.1-8 34.3-1.3 51.8l-1.3.5a73.6 73.6 0 0 1-4.8-6.6 99.7 99.7 0 0 1-11.3-58.3c2.2-29.7 11.9-57.3 24.5-84 8.4-17.8 17.7-35.3 26.4-52.6-22.5 8-45.8 14-70-.3 1.3-.5 36.8-7 51.3-17.8 28.3-20.7 52-46 73.3-73.5A279.2 279.2 0 0 1 202.2 64c12-7.4 22.8-16.5 35-23.2 34.7-19 71.6-32.2 110.9-36.9 22.8-2.8 45.7-5.3 68.7-3.3 10.3 1 20.2 3 29.4 8.2 10.3 5.9 15.6 14.9 18 26l1 4c7.2-1 14-2 21-2.5 17-1.3 33 2.7 48.8 8.5 37 13.6 69.8 34.2 99.1 60.2 22.2 19.8 42 42.2 59.8 66.2 12.5 17 24.5 34.5 37 51.5a86.6 86.6 0 0 0 27.7 25c6 3.2 12 5.7 19.1 5.2a24 24 0 0 1 7.4 1.2 51.3 51.3 0 0 1-33.9 2.9c-11-3-21.7-7.4-32.6-11.1 2 6.2 4.7 13 6.6 20 5.5 20.7 10.7 41.5 16 62.3a159 159 0 0 0 18 46c8.5 13.7 18.2 25.6 36.6 25.8-3.8 3.4-12.9 5.4-19.2 4.4a77.6 77.6 0 0 1-37.5-18.7l-7.6-6.4a241 241 0 0 1 1.7 56c-1.6 18.5-4.1 36.6-14.1 53a159.4 159.4 0 0 0-9.7-43.4c-2.5 14.7-12.4 28.6-5 44.2 5.3 11.6 13 21 26.8 23.3a4 4 0 0 1 2.4 1.4c-20.6 7.9-38.9 1.5-56.5-10-1.4 3.7-2.5 7-3.6 10.4-4.3 13.7-13.7 24.3-22.4 35.2-7.4 9.2-6.9 19.5-9.9 30.5-.4 7.3 1 13.9 6.1 22.1-11 1.6-26.9-10.2-32.6-32.9-6.3 2.5-12.7 4-17.6 9.6-7.5 8.5-15.6 16.6-19.7 27.4a88.7 88.7 0 0 0-5 20.2c-1 8.3-.2 16.5 8.5 21.6-11.8 3-24-7.5-35.4-30.6-6.3 13.4-12.7 26.2-9.7 41.2 1.2 6 7.3 12.4 13.8 12.8-8.3 4-17.3 2-27-4a40 40 0 0 1-14.5-18.7c-7 13-3.3 24 9.6 36.7-15.4 1.4-30-5-40.1-17-2.8 7 .4 20.8 6.7 25.4 8.7 6.5 18 12.1 27.2 17.7 1.6 1 4.4.5 6.6.6 5.6 0 11.4-.9 16.7.5 9.7 2.6 19.1 6.4 28.6 10a23.8 23.8 0 0 1 7.9 4.7 36 36 0 0 0 13.9 7.5c21.2 7.5 34.1 23.2 45.7 42.5 7.8 13 8.9 24.5 12.2 35.3h-8.1a162.9 162.9 0 0 0-14.2-38 57 57 0 0 0-38.7-30.3c-13-4-19-1.3-25 11a199.2 199.2 0 0 0-17 58.2h-5.3c1.4-11.2 1.6-19.2 6.4-35.2 5.2-17 15-37 24-45-3.6-1-9.3-3-13-4-.4-.2-11.7 20.6-20 42-7.5 19.7-10 41-12 41-.5 0 3.2-21.8 10-42 7.5-21.7 18.7-42 18-42a48 48 0 0 0-9-1c-4 0-9 3-12 7-1.5 2-54 78-59 78-5-2 54-79 56-81 4.6-4.6 7.6-8.1 10.4-10-4.3-1-13.1-2-19.3 6-5.4 7-9 14.5-14 22-7.3 11.5-14.7 24-23 35-7.5 10-16.4 18.7-25 28h-9c1-1 9.2-8 10-9a292 292 0 0 0 29.2-40.9c2.8-4.8 8.1-12.6 7.9-13.1-27.8 3.4-67 6-79 12-11.6 5.8-21 12-22 11-2-2 23-19 33-22 21-6.3 43.3-5.7 65-8.4 6-.8 10.4-3.2 13.4-8.3 2.8-4.5 5.2-7.4 7.7-11.3-9.2-5.7-17.6-8-28-17-6.9-6.2-11.8-13.9-13-23.3a187.8 187.8 0 0 1-1.3-19.6c-.2-8 0-16 0-23.8a1.7 1.7 0 0 0-.8 0c-33.9 15.2-68.6 28.1-101 46.1A5 5 0 0 0 362 690a212.2 212.2 0 0 1-.4 22.3c-.4 4.6-2.2 9.2-3.4 13.8l-1.7-.2v-21.4c-2.4 4.7-4.4 7.7-12.4 12.7-10.2 5-16.4 6.7-26.9 11.1a21.8 21.8 0 0 0-13.9 17.1c11.4 2.7 23 4.6 33.1 9.1 3.4 1.6 14.6 6 18.1 14.1-8.2-4.2-17.4-9.7-25.9-12.9a73 73 0 0 0-26.9-4.9 95 95 0 0 0-.9 40.1c1.4 6.8 6 16 8.5 22.4h-6.3a33.5 33.5 0 0 1-3-6.3c-1.8-4.7-4.3-9.5-5.3-14.5-5.6-25.9-4.1-46.5 13.2-69.4l-2.5 1.1c-.5.4-14.6 17.9-18.5 39.1-4.3 23 4 51.1 1 51.1-2 .1-9.2-26.7-6-49.9 2.8-20 17.5-37.8 17-37.6-3.2 1-6 2-10 3.7a347.7 347.7 0 0 0-21 44.1c-7.4 19.2-11 39.1-12 39.1-.6.1 2-19.9 9-38.9 7.8-21.3 20-42 19.3-41.6l-4.5 2.4-3.8 2.3c-7 4.6-9 12-12 19.1a290.6 290.6 0 0 0-18 58.1h-6c2-23.9 9.6-43.9 18-65.9a67.8 67.8 0 0 0-28 18.1 77.8 77.8 0 0 0-23 47.1zM391 38.2c11.2 1.4 13.8 3.7 20 7.1a78 78 0 0 1 7.4 4c6.8 4 13.1 9 20.3 14a47.3 47.3 0 0 0-23.8-41.6 86.2 86.2 0 0 0-28.3-10.6 164 164 0 0 0-57.3 2c-25.6 4.4-49 14.5-71.7 26.7l-19 10c11-2.4 21.9-4.9 32.8-6.9 13.6-2.5 44.5-2 44.6-1.5-8 2-27.3 4.2-35.4 6.1a305 305 0 0 0-72 25c-28.8 14.8-51 37.4-71.3 62-14.1 17.1-27.6 34.7-44.4 49.5-16 13.8-31.3 28-50.6 37l-4.9 2.4c21.4-1.3 38.9-10.1 55.6-21.9 4.2-2.7 16.2-13 16-11.9 3 .7-5.3 12.3-8 16.1-2.5 3.5-4.6 7.5-7 10.1-9 10.6-15.4 21.7-22.4 33.8-10 17.4-20.3 34.6-27.4 53.5-9.4 25-15.1 50.5-13.2 77.4.1 2.1.6 4.3 1 6.4 5.6-38.2 34-98.9 66-123.9.8 3.1-14 40.5-15 44.1-3 11.3-5 23.8-7 35.1-4.6 27-13.2 52.8-17.5 79.7-2.3 15-4.5 30.1-11.2 44l-2.7 5.7c26-18 37.9-44 43.3-74a9.5 9.5 0 0 1 1.6 4.7c-.5 24.2 2.6 48 6 71.7 2.4 16 4.8 31.8 3.4 48L98 531l1.4.3a88 88 0 0 0 20.8-66.4c2.8 18 12.5 32.7 20.1 48.3l1.2-.2c.5-6.5 1.6-12 1.5-19.7 0-1-2.6-4.3-3-5.2-9-11-11-22-14-34.4-5-20.5-11-40.4-10.6-61.7.8-41.3 6-81.8 19.6-120.9 5.1-14.6 11.3-28.9 20.7-42.5l-1.2 4.1c-7.3 20.7-15.4 41-21.7 62a289.4 289.4 0 0 0-12.5 104 223.4 223.4 0 0 0 17.3 72.3 124 124 0 0 0 25.2 34.4c8.6 9.3 18.8 16.6 30 22.8a2.5 2.5 0 0 0-.6-1.6 146.2 146.2 0 0 1-20.3-43c-9.8-34.2-8.5-68.7-3.8-103.3.8-5.9 3-16.4 2-16.6-3.1-.6-11.1.4-11.1-.6 0-1.9 8-.9 12-2.9 2-.8 2-4.6 2.3-6 2-10.7 4.5-21.3 6.9-32a343 343 0 0 1 31.9-87.9c3-4.9 30.5-46.2 31-45.9-21 41.3-59.8 125.3-65 171.8 5.6.5 10.8 1 16 1.1 1 0 2.5-1.6 3-2.8 6-15 13-29 19.3-44.5 2.6-6.6 9.6-22.8 10.7-25.6l7.5-18.3c3.5-7.6 8-18 11.8-27 3.9-9 13.7-34.5 14.7-34.5s-4 13.9-5 17c-8.3 25-11 50.8-13 77-1 14.4-2.3 28.6-4 43-.9 7.6-2.7 16.5-4 24 3.9 3 3.9-.6 5.2-3.5 7.6-16 16-31.7 22.4-48.2a475.2 475.2 0 0 0 18.1-56c1.5-5.7 5.3-21.3 10.3-35.3 9.8-27.3 30.3-55.9 33-54 3 2-27 57-33 75-9 27.1-7.5 55.4-6 84 1.3 24.4 4.2 47.7 7 72 1.9 15.4 2.8 31.3 4.8 48a358 358 0 0 0 29.5-110.4c-2.4 33.3-5 66.5-19.8 97.7 1-.1 1.3 0 1.4-.2a309 309 0 0 0 45-71.6c9.5-21.3 15.2-43.9 21-66.4l7.4-27.1 1.8.4c-9 49.3-13.7 99.6-31.3 147.3 9.4-13 19-26 27.6-39.4a445 445 0 0 0 24.5-41.4 354.8 354.8 0 0 0 18.4-44.6A384.2 384.2 0 0 0 435 249a412.6 412.6 0 0 0 6.6-47.7c1.3-15.8 1.1-31.7 1.6-47.1a50.6 50.6 0 0 1 1 7c0 17.5 0 35.1.2 52.7 0 6.2-1 13 1 18.9a561 561 0 0 0 18.4 47.8 325.6 325.6 0 0 0 38 67.1c1 1.3 2.9 3 4.5 3.1 4.6.5 9.3.3 14.1.3-8.8-30.2-19.8-58.5-25-88.6 11.2 34.6 30 65 50.6 94.3l2.5-.8c-.3-29.6-4-58.9-9.3-88 3.4 8.3 6.9 16.7 9.4 25.3a362.8 362.8 0 0 1 14.6 92c1 37.5-3.5 74.1-16.3 109.4-3 7.8-6.8 15.4-10.3 23.4 11-7.7 40-34.2 55.3-67.2 14-30.1 14.4-66.8 21-77 1.3 3.6-.3 45.2-8 71a211 211 0 0 1-18 42c-2.9 5-16.3 27.7-26.9 43a224 224 0 0 0 68.7-91.5l-8.3 48.5 2.7-4c14.2-27.6 22-56.8 22.6-87.6.3-20-1.7-39.9-2.8-59.8-.4-6.6-4.8-42.6-2.8-42.6.4 0 12.7 60 13 65 1.2 21.6 1.6 41.6 1 64-.2 3 0 8 1.5 8.7 2.4 1 4.6 3 7 4.4 1 .7 4.2 5.2 5 6.8 2 3.6 4.2 7 6 10.5 5.6 11.4 5.5 23.6 5 35.9 0 1.7 0 3.9.9 5 7.8 9.8 20.6 9 30.7 17.4-19-15.8-29.6-65-24.5-79a75 75 0 0 0 10.6 33c4-13 7-25.8 6.5-38.8-.6-12.7-2.3-25.4-3.6-38.7 11 23 17.7 47 23.3 71.2 6.4-40.3.1-80-6.2-119.7 12 23.9 26.6 45 52.3 57.8a12.2 12.2 0 0 0-1-2.3c-12.7-12-21-27-26-43.6-7-23-13.6-46.1-19.5-69.3a210.7 210.7 0 0 0-33.3-72.7 32.2 32.2 0 0 1-1.6-2.8c18.2 18.3 37.6 34.6 62 43.8-17-12.1-29-28.9-41.5-45.3-16.3-21.4-32.6-43-49.9-63.6a283.3 283.3 0 0 0-75.4-64.3C557.1 62.2 531 50 502 45.4 480.6 42 462.1 48 449 67c-.7 1.3-2.6 4.5-3 4.1-1-.9 3.5-10.8 6-14.9a29.8 29.8 0 0 0-10-40.7c-12.7-7.7-26.9-7-40.8-8.2 3.9 1.8 7.9 3 11.6 4.7 21.2 9.7 27.9 29.4 31.3 53.5 1.1 7 2.1 10 2.7 16.1l2.8-1.8C461.4 72 476 69.2 487 75.2c2 1.2 4 2.7 5.8 4a139.2 139.2 0 0 1 38 41.1 279.2 279.2 0 0 1 19.4 37.6c9 21.8 16.7 44.1 24.8 66.3.5 1.2 0 2.7 0 4.1-.7-.3-1-.7-1-1-9-29.1-19.9-57.5-34.3-84.4a189 189 0 0 0-34.5-47.5c-13.5-13-29-18.5-47-12.3a55.8 55.8 0 0 0-6.7 2.8 19.7 19.7 0 0 0-9.4 9.2c-2 3.4-5.9 11-6.9 11-.4 0-1.9-3-1.9-5a54.8 54.8 0 0 1 .5-7.2c1.8-18.4-14-30.9-29.3-40.4-15-11.4-65-13-65-15.4-.1-1 42.9-1 51.9 0zm118 588.1a69 69 0 0 1 2.8 11.5 39 39 0 0 0 8.6 18.7c1.4 1.7 9.7 13 17.7 14a30.4 30.4 0 0 1-9.4-30.8c1.2-5.5 9-29.8 9.1-30.6 4.4-9.7 8.4-15.7 13.6-19.2.4 8.7.4 17 1.3 25.2a30 30 0 0 0 12.3 21.3c-2.8-24.2 9.3-42.6 23.6-60-9-.8-16.6-.3-25.5-.9-3.5 0-3.8.8-6 3.1-5.6 6.2-10.9 12.5-17 18.1-10 9.4-30 24.6-42 30.1-4 3.1-8 5-11 7.1-6 4.6-9 11.1-9.2 15.7-1 20.7 21 27.4 27.3 30.4-15-11.9-3.4-34.5-3-35.9 2.5-6.3 5-10.3 7-16.9zm-323.8-97c2.3 14 4 26.5 6.5 39a55.5 55.5 0 0 0 21.7 34.4c10 7.5 20.3 15 31.4 20.4 23.5 11.8 47.6 22.5 71.7 33.3 18.6 8.5 37.7 13 58.5 8a453.7 453.7 0 0 0 94.1-34.2c12-5.9 24.4-11 35.5-18 16.5-10.3 32-20.8 43.6-36.7 5-6.7 10.3-9.6 19-6.9 11 2.1 21 2.5 31.6-1a192 192 0 0 0 26.1-11.3A78 78 0 0 0 670 490c1-13.3.8-26.7-6.6-38.5a54.6 54.6 0 0 0-10.4-12c-3.4-3-5.7-1.8-7.2 2.4-1.6 4.3-3 9-4.8 14 8-2.1 13.6.2 16 7.7 1.5 5 2.6 10.2-.1 16.4-2-5.2-2.9-9.7-5.1-13.2a12.7 12.7 0 0 0-7.7-5.2c-3.2.5-7.2 11.5-10.2 14.8 1.4 5.5 2.5 11 3.2 16.6.6 5.3.7 10.7 1 16h-.7l-7.1-25.8-18.7 25.1 6.2-34c-4.7 5.5-8.2 11.3-12.1 16.8-2.5 3.5-3.1 6.2-1.7 10.3a64.4 64.4 0 0 1 3.2 16.6 13 13 0 0 1-3 8.4c-4.7 5.3-15.4 12.7-15 14.7.5 2 14.5 0 22 0a183.6 183.6 0 0 1-20.5 4 8.8 8.8 0 0 1-1.7.3c-2.3-.2-3.3-1.2-3.4-2.6a8.1 8.1 0 0 1 1.8-6.9c3-3.9 6.5-7.3 9.7-11 5.9-6.5 7.4-18.7 2.8-26a167.4 167.4 0 0 1-54.4 43.8 95.8 95.8 0 0 0 22-46.4 168.5 168.5 0 0 1-48 37.8c4.8-7.3 10.7-14.2 14.7-22 10.5-20.6 15.7-43 19.2-65.8.9-6.3 1.4-12.6 2.1-19l-1.2-.3c-7.8 17.7-15.1 35.7-26.8 51.4 6-13.8 8.8-28.3 10-43.2.2-2.9-.4-5.3-3.6-5.8-7.9-1-14-1.2-22.5-2.3.5 5.1.6 8.5 1 12.1 1.8 21.9-1 42-15 59.1-11 13.4-34 23.1-55.6-1.9a69.5 69.5 0 0 1-13.8-40.7c-.2-6.1.7-12.4 1-18.9-12.1 2.2-22.5 8.4-33 14.2l-1-1.2 15.4-16.5-14.6 7.7c1.9-2.4 4.4-4.1 6.6-6a99.4 99.4 0 0 1 54.5-22.5c13.5-1.6 27-3 40.5-3.3 16.5-.6 33-1.9 49.5 1.4 3 .6 6 .9 9.6 1.4 0-9.6.1-18.5 0-27.4A8 8 0 0 0 555.2 380c-4.8-6.4-10-12.5-14.7-19-7-10-13.8-20-20.6-30.1 6.4 21.1 14 41.8 27.6 59.9a152.3 152.3 0 0 1-43-31.4c-3.5-3.7-6.8-4.3-11.3-2.5-20.8 8.3-41.8 15.9-62.4 24.4a69.2 69.2 0 0 1-42.3 5.3c-3.3-.7-5 .3-7 3a385.6 385.6 0 0 1-40.2 50c-2 2-3.8 4.2-5.7 6.3 13.8-26.4 20.8-54.7 26.5-83.5a341 341 0 0 1-68.4 98c-.3-1.2-.6-2.4-.7-3.7-2.3-18.3-4.5-36.7-7-55a5.6 5.6 0 0 0-2.7-3.9c-14.6-5.5-29.4-10.7-44-16-2.3-1-3.6-.6-5.2 1.4-3.8 4.7-8 9-12.3 14l5-21c-8.4-2.7-16.2-5-24-7.8-3-1-4.3 0-5.4 2.5-2.5 5.7-5.4 11.1-7.7 16.8-4 10-7.5 20-11.4 30.3 51-8.6 88.3 5.7 107.8 23.7l-7.2-1.3c4.5 6.8 13 18.6 14 21.6 0 .3-6.2-6.7-9-9 0 2 .8 6.1 1 8 1 12.4 2.7 25.1-2 37a29.8 29.8 0 0 1-14 16 39 39 0 0 1-35.2-1.4h11c-26.8-12.6-31.3-48.3-30.4-78.8a14 14 0 0 0-2.7-.4c-6.8.6-13.5 1-20.1 2-7.1.8-8 2.2-6.6 9 3.3 16 5 32.3 14.7 46.3-13.6-13.8-20-31.8-28.2-49.3a11 11 0 0 0-.3 2.2c2 11.8 3.3 24 6.2 35.5A135.8 135.8 0 0 0 205 537zm310.7-178.5a519 519 0 0 1-52.7-96c-13.7 44.7-29 87.5-54.4 126.2 17.7-6 34.8-13.4 52.5-18.5 17.8-5 36.2-7.9 54.4-11.7zm-212 41-10-81-30.4 61.3c14.2 5 28.3 9.7 40.4 19.6zM450 432c-17 5.8-12.3 43.4-10 48.1 4 8.1 9 18.1 18.5 23.4C483 514.1 498 493 504 471.1c3-10.9 12-39.9-24-41.9-4 0-24 1.1-30 3.1zm-223 49.1c2 7.6 6.9 15.3 10.8 20a72.6 72.6 0 0 0 6.7 6.6c3.5 3.2 8.9 6.1 13.6 5.5 13.8-1.6 19.2-7.6 22-21.9 1-4.9 1-7.9 1-13.9 0-.3 1-26.9-8-33.9-3-1.9-7-3.9-17-5.9-3.3-.6-23-3.9-29-2.9-1.1.3-11 5.1 0 47.1zm2-112.6c2.3-21.9 6.1-65 5.7-65.1-13 18.2-23 38-32.8 58.7zm-78.8 133c1.2 22 6.5 42 29.7 53.4l-4.7-30.5a3.5 3.5 0 0 0-1.2-1.8l-23.8-21.2zm43.2-136.2c-4.3-.5-8-.2-11.9-.3-3.4-.3-3.3.5-3.4 3.1-.2 5.1 0 10.1 0 12.1 0 5.2 0 16.1 1.8 18.6l13.6-33.4zm338.4 12 1.1-1-10.6-22a2.3 2.3 0 0 0-2.3-1c-4 .3-8.5.2-12.6.7-.1.4 16.1 15.8 24.4 23.1zm110.3 181c-.9.3-5.4 2.8-6 3-11 7-12.8 11.1-8 21 2 4 8 10.6 9 12-1-6-.2-14 0-16 1-9 3.9-13.6 5-20zM269.5 453.5c-.1-3.3-3.5-6.6-6.8-6.4-3.3.2-4.8 2.5-4.9 5.7a6.5 6.5 0 0 0 6.4 6.6 5.6 5.6 0 0 0 5.3-6zm213.3-2.4c3.1-.3 5.5-1.5 5.4-5.2.1-3.4-2.5-6.4-5.6-6.2-3.4.2-5 2.4-5 5.6-.1 3.5 1.7 5.5 5.4 5.8zm-46.1-79" id="path78"/><path class="cls-4" d="M268.4 453.6a5.6 5.6 0 0 1-5.3 6 6.5 6.5 0 0 1-6.3-6.6c0-3.3 1.5-5.5 5-5.8 3.4-.2 6.6 3 6.6 6.4z" id="path80"/><path class="cls-4" d="M481.8 451.2c-3.7-.3-5.5-2.3-5.5-5.8 0-3.2 1.8-5.4 5.2-5.6 3-.2 5.7 2.8 5.7 6.2 0 3.7-2.3 4.9-5.4 5.2z" id="path82"/><path d="M198.5 152.3A213.4 213.4 0 0 1 303 75a212.2 212.2 0 0 1 57.7-13c10.7-.6 21.6-1 31.5 4.2 5 2.6 9.5 6.6 14 10.1 1.3 1 2 2.7 3 4l-.9 1c-1.2-.6-2.6-1-3.8-1.7-19-10.7-39.6-11.7-60.7-8.7-32.8 4.7-63 16.6-90.5 35a188.5 188.5 0 0 0-42.5 36.4c-2.3 2.8-4.6 5.7-7.1 8.4-1.2 1.2-3 1.9-4.4 2.8z" id="path84"/><path class="cls-16" d="M269 194.1c-3-1.9 34.3-55.7 38-59.9 23.4-25.7 43.4-33 69.7-41.8a46.8 46.8 0 0 1 31 1c10 3.5 13 11 13.5 20.7-3.7-2.7-7.1-5.2-10.7-7.5-9.8-6.3-20.5-6.4-31.5-4.8-27.2 4-48.5 19.1-68.2 37.1-4.7 4.3-38.7 56.3-41.7 55.3z" id="path86"/><path class="cls-16" d="M474 129.1c-8-8-15.6-15.7-28.2-14.5 0-4 1.5-5.8 5-6.2 11.4-1.2 20.3 3.5 28.3 10.8 23 21.1 50 90.1 46 91.1-2 2.1-32.3-62.1-51-80.9z" id="path88"/><path class="cls-16" d="M408 144.1c7 20.1-31 105.1-73 141.1 0 0 30.6-45.4 33.7-51 3.2-5.5 5.9-11 8.9-16.5a382.6 382.6 0 0 0 25.5-58.4c.3-.5 4.5-13.2 5-14.9z" id="path90"/><path d="M486.1 398.3a234 234 0 0 0-85.1 17.1c4.5-2.7 8.9-6 13.8-8 23-9.4 47-10.8 71.3-9z" id="path92"/><path d="M323 599.6c3.3-2 5-3.3 7.7-3.3A104 104 0 0 1 367 601.3a6 6 0 0 1 3 2.6c-15.3-4-34-6.9-46.2-2.2-.4.2-1.6-.3-1.7-.7 0-.2.2-.7 1-1.4z" id="path94"/><path d="M277.4 421.1a157.4 157.4 0 0 0-53-14.3c13.1-2.3 43.2 5.8 53 14.4z" id="path96"/><path d="M316.7 535c1.4.1 2.4 6.1 2.6 9 0 .4-.6 1-1 1-1.3 0-2.2-.9-3-2.2-1.2-2.4-3.3-8.5 1.4-7.8z" id="path98"/><path d="M299 209.1c0 .1-51 70.1-49 72.1 2 2.1 52-71.9 52-71.9z" id="path100"/><path class="cls-15" d="M163.4 362.4s34.4 1 54 8c11 4 32.3 10.7 38.5 12.5 8.4 2.4 24.4 11.4 23.4 8.4s-25-12.7-45-20c-4.1-1.5-11.5-3-16-4-22.8-5.1-55-5-55-5z" id="path102"/><path class="cls-18" d="M392.4 383.4c5-4 37-15 42-16s60-16 64-16 17.6 1 17.6 1a76.2 76.2 0 0 0-19.6 2 224 224 0 0 0-39 14c-17 8-30 10.8-36.5 13-6.7 2-33.6 6-28.6 2z" id="path104"/><path class="cls-16" d="M359.4 56.4a69.5 69.5 0 0 1 25.3 4 47.8 47.8 0 0 1 16.8 9.8 70.8 70.8 0 0 1 6.1 6.7c1.6 1.9 2.6 3.6 1.8 4.4-1.3 1.3-3.3-.7-4.4-1a121 121 0 0 0-23.4-4.7A183 183 0 0 0 302 86.2a232.2 232.2 0 0 0-89.4 55.9 223 223 0 0 0-28.2 36.3 29 29 0 0 1-2.6 3.5 1.6 1.6 0 0 1-2.5-1.4 16.5 16.5 0 0 1 1.6-3.5 165.7 165.7 0 0 1 14-20.6c15.4-21 30.9-40.2 51.4-56 18-13.9 40.7-23.8 61.8-32.5a161.5 161.5 0 0 1 34-10.1 87 87 0 0 1 17.2-1.6z" id="path106"/><path class="cls-16" d="M359.8 33.4a143.4 143.4 0 0 1 48.5 8A87.7 87.7 0 0 1 429.6 52a51 51 0 0 1 12.5 12 31.2 31.2 0 0 1 5.8 13.4 25.7 25.7 0 0 1-1.7 14c-2 5-6 8.4-9 12.8-.9 1-.7 2-1.6 2.2a2.2 2.2 0 0 1-2-1 9.7 9.7 0 0 1-1-4c.2-11.8.8-20.3-5.6-28.8a57 57 0 0 0-12.5-11.8 100.4 100.4 0 0 0-32-14.7A159 159 0 0 0 328 41a16 16 0 0 1-3.7 0c-.4-.2-.8-1-1-1.5a1.4 1.4 0 0 1 .6-1.2 32.5 32.5 0 0 1 4.9-1.5 137.2 137.2 0 0 1 30.8-3z" id="path108"/><path class="cls-17" d="M158.4 206c-7 10.3-16.4 16.3-20.9 13.2-4.5-3-2.5-13.9 4.5-24.3s18.4-14.6 20.9-13.3c1.4.7 2.4 13.9-4.6 24.2z" id="path110"/><path class="cls-17" d="M202.7 185.3s-26.2 13-30.8 30.7c-4.8 17.7-8.6 29.3 3 37 11.5 7.7 25.3-11.2 27.7-15.2 2.3-4 0-52.5 0-52.5z" id="path112"/><path class="cls-17" d="M331.5 244.8s-1.1-15.4-7.2-15.4c-6 0-18 2-22 22s-1 33 8 31 16-16 17-16 6 4 11 0 10-13 13-20-.7-14.7-3-15c-9-1-16.8 13.4-16.8 13.4z" id="path114"/><path class="cls-17" d="M422.4 206.4c3.4 4 1 12-2 21s-10 41-12 42-14-7-13-27 17-35 20-36c2.9-1 5.8-1.3 7 0z" id="path116"/><path class="cls-17" d="M460.8 194.4c5.3-.2 10.1 6.6 15.4 14.5 5.3 7.8 18.1 44.4 16.1 45.4s-12 1-25-24c-9.2-17.7-8.2-35.9-6.5-36z" id="path118"/><path class="cls-17" d="M506.4 213.2c3.9-.5 18.2 10 21.6 15.8 3.4 5.8 4.6 24-2 28.4-1.5 1-12 2-20.2-16.3-5.7-13-.7-27.7.6-27.8z" id="path120"/><path class="cls-17" d="M553.8 242.4c3.6-4.2 18 7.7 20.6 12 2.6 4.4 9.9 22.7 4.8 26-1.1.7-9.1-.6-20.4-11-10.6-10-5.6-26.2-5-27z" id="path122"/><path class="cls-17" d="M644.3 175.4c5-6 24.3 11.8 28 18 3.7 6.2 14 22 6.9 26.7-1.7 1-10.4-1.3-24.9-17.6-8-9-10.9-25.9-10-27z" id="path124"/><path class="cls-17" d="M598 189.7c4.9-2 26.7 11.4 31.3 19.7 10 18 14.6 39.4 13 41-1.5 1.7-9.4-3.7-27-27-12-16-18.9-33-17.3-33.7z" id="path126"/><path class="cls-1" d="m315.8 666.4.6 13c0 .7 9.3-5.5 10.5-7.4 1.2-1.8-11.2-5.6-11.2-5.6z" id="path128"/></svg>