<?xml version="1.0" standalone="no"?>
<!DOCTYPE svg PUBLIC "-//W3C//DTD SVG 20010904//EN"
 "http://www.w3.org/TR/2001/REC-SVG-20010904/DTD/svg10.dtd">
<svg version="1.0" xmlns="http://www.w3.org/2000/svg"
 width="611pt" height="919pt" viewBox="0 0 611 919"
 preserveAspectRatio="xMidYMid meet">

<g transform="translate(0,919) scale(0.1,-0.1)"
fill="#333" stroke="none">
<path d="M4860 8883 c-8 -3 -23 -14 -33 -24 -17 -16 -19 -31 -18 -117 1 -87
-2 -104 -24 -148 -20 -37 -27 -70 -31 -134 -2 -47 -9 -94 -13 -105 -23 -50
-41 -122 -41 -161 0 -23 -9 -61 -20 -85 -11 -24 -20 -55 -20 -69 0 -14 -9 -51
-20 -83 -11 -31 -20 -63 -20 -70 0 -25 49 -69 68 -62 38 14 107 23 127 15 32
-12 48 -60 43 -132 -3 -49 -15 -85 -50 -158 -63 -132 -78 -182 -75 -266 1 -49
-2 -76 -12 -88 -30 -35 -59 -117 -66 -180 -5 -49 -14 -73 -32 -93 -38 -44 -55
-90 -40 -114 13 -21 17 -22 61 -19 39 2 49 15 71 80 10 30 21 57 24 60 3 3 17
22 31 42 14 21 28 38 33 38 4 0 7 5 7 11 0 6 6 17 14 24 7 8 16 31 19 53 4 21
17 54 30 73 20 30 28 34 74 37 56 3 76 -10 103 -66 7 -15 20 -42 29 -61 16
-34 73 -99 101 -117 8 -5 23 -34 33 -64 19 -57 34 -91 112 -252 46 -96 97
-157 133 -159 49 -3 123 19 137 41 3 5 15 10 25 10 21 0 100 87 100 111 0 22
-27 74 -46 90 -19 16 -75 38 -124 48 -58 12 -94 37 -115 78 -25 48 -59 95
-108 147 -22 23 -56 66 -77 96 -42 62 -98 120 -115 120 -23 0 -43 35 -50 85
-8 63 -27 135 -36 135 -10 0 -29 59 -29 91 0 16 9 37 21 48 39 36 47 83 41
246 -6 194 -6 195 92 195 58 0 76 -4 89 -18 19 -20 24 -84 13 -149 -11 -59 -2
-80 37 -86 33 -4 77 9 77 25 0 4 7 8 15 8 8 0 15 4 15 9 0 4 27 27 60 50 33
23 76 59 95 79 31 33 35 43 35 90 0 68 -8 82 -95 170 -53 53 -79 72 -98 72
-15 0 -27 -4 -27 -9 0 -4 -25 -34 -56 -64 -40 -42 -65 -58 -92 -62 -60 -11
-130 -35 -135 -48 -3 -9 -21 -8 -69 6 -37 9 -77 17 -91 17 -13 0 -39 10 -58
23 -40 27 -41 57 -4 122 13 23 26 66 30 100 4 33 17 92 30 130 13 39 27 86 30
105 4 19 18 58 31 86 23 48 23 53 10 104 -18 68 -52 100 -104 99 -20 0 -44 -3
-52 -6z M1610 8731 c-5 -11 -10 -66 -10 -123 0 -136 -15 -177 -78 -208 -65
-33 -124 -36 -201 -11 -89 29 -240 30 -265 2 -24 -27 -8 -54 42 -70 41 -14
183 -10 287 7 44 7 57 4 115 -23 73 -34 87 -47 96 -91 7 -36 -16 -88 -52 -119
-33 -29 -30 -56 12 -106 31 -37 35 -47 29 -78 -7 -43 -26 -59 -74 -66 -20 -4
-51 -13 -69 -21 -28 -12 -33 -19 -30 -42 3 -24 8 -27 42 -30 21 -2 43 -8 50
-13 6 -6 27 -18 45 -27 41 -20 56 -61 40 -110 -12 -36 -79 -82 -122 -82 -43 0
-113 36 -142 74 -23 30 -26 42 -20 73 4 21 13 49 20 63 17 32 5 86 -42 197 -7
17 -13 40 -13 50 0 21 -20 43 -57 62 -18 9 -29 8 -52 -3 -47 -25 -54 -67 -21
-131 23 -45 27 -130 8 -199 -9 -34 -9 -62 0 -119 12 -77 4 -133 -22 -160 -33
-33 -29 -56 18 -103 l45 -46 38 23 c21 13 60 45 87 71 47 46 65 54 124 50 21
-1 52 -23 52 -37 0 -4 -18 -25 -40 -46 -22 -22 -40 -42 -40 -46 0 -32 -192
-253 -220 -253 -5 0 -15 -6 -22 -12 -8 -7 -22 -18 -33 -24 -11 -6 -28 -27 -40
-47 -11 -19 -40 -58 -65 -85 -25 -27 -56 -63 -70 -80 -14 -17 -29 -31 -33 -32
-8 0 -116 -52 -153 -73 -35 -21 -54 -45 -54 -70 0 -63 115 -47 216 30 33 24
81 55 107 69 63 31 237 207 269 270 30 61 162 194 193 194 46 0 81 -84 73
-178 -3 -31 -2 -68 2 -82 3 -14 3 -38 -1 -55 -4 -16 -10 -47 -13 -67 -4 -21
-18 -51 -32 -68 -24 -28 -30 -30 -94 -30 -61 0 -68 -2 -73 -22 -8 -28 4 -48
42 -73 17 -11 38 -34 48 -52 10 -18 30 -37 47 -43 37 -13 196 -13 230 0 35 13
59 64 52 109 -3 20 -10 70 -16 111 -15 98 -9 476 8 508 15 27 62 30 84 5 8
-10 23 -40 33 -66 12 -32 32 -59 59 -80 70 -56 133 -124 155 -170 15 -31 33
-49 64 -65 71 -36 190 -144 203 -185 9 -28 31 -49 84 -82 25 -15 51 -34 57
-43 11 -14 16 -14 50 1 21 8 65 18 98 21 43 4 83 18 140 47 44 23 90 47 103
53 26 13 35 35 27 69 -9 33 -22 38 -135 44 -67 4 -110 13 -146 28 -29 13 -66
26 -82 30 -39 8 -109 41 -117 56 -11 17 -106 74 -145 88 -19 6 -51 22 -70 35
-19 12 -52 34 -72 47 -21 13 -38 29 -38 34 0 6 -28 37 -63 71 -34 33 -75 78
-92 100 -16 21 -44 53 -61 69 -39 37 -53 95 -29 119 23 22 57 29 125 24 52 -4
65 -9 115 -51 62 -51 94 -58 135 -30 37 25 47 42 66 111 11 42 15 83 11 122
-3 37 -1 62 7 70 10 10 13 96 7 231 -2 36 5 77 19 118 30 90 19 134 -44 172
-31 19 -25 21 -154 -63 -15 -10 -37 -22 -49 -27 -31 -14 -35 -26 -13 -46 11
-10 20 -26 20 -36 0 -10 5 -21 10 -24 6 -3 10 -51 10 -107 0 -164 -64 -328
-129 -328 -15 0 -50 -7 -77 -15 -65 -20 -81 -19 -114 5 -31 22 -57 89 -52 133
5 38 38 56 124 68 40 5 90 12 111 15 l37 6 -57 29 c-32 15 -69 29 -81 29 -41
0 -81 32 -98 77 -16 42 -16 43 10 78 15 19 30 35 34 35 4 0 21 13 39 29 l32
28 -26 39 c-15 21 -34 44 -43 51 -9 6 -29 30 -45 53 l-29 42 34 28 c39 32 92
44 137 31 24 -7 41 -5 70 8 21 10 57 26 81 36 23 10 42 21 42 26 0 4 -24 13
-52 19 -29 7 -66 20 -83 28 -16 9 -53 16 -82 17 -64 0 -79 13 -95 84 -13 53
-21 63 -104 135 -49 42 -106 50 -124 17z
M2355 8610 c-27 -10 -61 -58 -69 -96 -6 -26 -2 -36 24 -61 38 -37 80
-47 123 -29 45 18 60 41 59 84 -1 29 -10 45 -41 75 -40 37 -59 43 -96 27z
M4499 8530 c-15 -4 -44 -19 -65 -34 -32 -21 -50 -26 -102 -26 -58 0
-132 -20 -132 -36 0 -4 13 -19 29 -35 39 -37 44 -84 39 -439 l-3 -285 -29 -38
c-16 -21 -45 -46 -64 -56 l-34 -17 29 -19 c15 -10 43 -34 61 -52 30 -32 32
-39 32 -108 0 -49 -4 -75 -12 -77 -23 -8 -54 4 -87 33 -19 16 -38 29 -43 29
-17 0 -79 -29 -94 -45 -26 -25 -98 -20 -129 10 -38 39 -33 76 17 131 39 42 40
46 27 71 -8 14 -26 35 -41 46 -24 17 -28 28 -28 67 0 39 5 50 35 79 39 36 39
37 25 135 -14 92 -2 131 43 140 28 6 36 3 60 -26 36 -43 41 -66 28 -129 -14
-65 -5 -77 42 -54 24 11 36 25 40 45 7 34 -2 400 -10 413 -12 19 -69 -4 -105
-43 -46 -49 -83 -52 -157 -13 -47 24 -54 25 -77 12 -15 -7 -31 -25 -36 -39 -5
-14 -9 -110 -9 -215 1 -173 -1 -193 -19 -222 -11 -18 -27 -33 -35 -33 -8 0
-15 -4 -15 -9 0 -5 -11 -13 -24 -18 -22 -8 -116 -87 -116 -99 0 -3 -11 -15
-25 -28 -14 -13 -25 -32 -25 -43 0 -28 61 -95 122 -134 77 -49 116 -93 129
-143 6 -26 9 -111 7 -212 -3 -153 -5 -173 -25 -206 -53 -90 -33 -165 49 -189
50 -14 55 -12 106 36 26 25 76 60 112 77 36 17 80 43 98 56 29 22 32 30 33 76
0 53 21 101 52 120 14 9 22 6 37 -14 18 -23 20 -42 20 -205 l0 -181 -41 -38
c-33 -32 -40 -44 -37 -70 4 -45 42 -60 163 -64 89 -3 102 -1 121 16 20 19 21
27 16 134 -3 62 -6 239 -6 393 -1 245 1 285 17 323 11 28 17 69 17 119 0 67 4
82 29 122 16 25 32 56 36 69 7 24 -24 162 -50 225 -8 20 -15 49 -15 64 0 15
-7 41 -16 58 -8 16 -19 61 -24 100 -7 57 -5 83 9 137 16 60 17 73 4 120 -7 29
-11 63 -8 75 6 27 53 53 94 53 40 0 80 52 60 78 -32 42 -49 48 -100 32z m-483
-1427 c17 -22 18 -106 3 -148 -8 -22 -22 -36 -46 -44 -31 -12 -37 -10 -67 13
-31 23 -33 29 -27 58 24 101 101 169 137 121z
M3522 8449 c-46 -42 -5 -132 67 -145 20 -4 51 -13 69 -21 44 -18 79
-8 127 39 22 21 44 38 49 38 13 0 35 32 36 51 0 30 -84 52 -210 56 -107 4
-117 3 -138 -18z
M3945 8451 c-61 -25 -67 -30 -52 -45 6 -7 28 -16 47 -19 19 -4 55
-11 79 -16 35 -7 51 -6 75 8 43 23 81 50 75 54 -37 30 -59 37 -119 36 -36 -1
-83 -8 -105 -18z
M4260 5805 c-10 -13 -8 -22 15 -55 15 -22 41 -50 59 -64 97 -75 110
-107 81 -200 -11 -34 -15 -66 -11 -83 18 -71 18 -94 1 -113 -10 -11 -29 -20
-42 -20 -34 0 -88 -25 -120 -54 -15 -14 -31 -26 -35 -26 -5 0 -8 -7 -8 -15 0
-9 9 -15 22 -15 47 0 107 -32 128 -68 31 -52 19 -83 -61 -164 -58 -57 -77 -70
-124 -83 -72 -18 -75 -21 -75 -55 0 -37 34 -70 73 -70 16 0 44 -7 63 -16 30
-14 34 -21 34 -56 0 -41 -49 -154 -76 -174 -17 -13 -71 -121 -88 -174 -17 -54
-65 -122 -121 -168 -27 -24 -72 -63 -100 -87 -27 -25 -54 -45 -58 -45 -5 0
-28 -14 -53 -31 -24 -16 -59 -35 -77 -41 -17 -6 -39 -16 -47 -22 -8 -6 -31
-20 -50 -30 -45 -25 -101 -73 -117 -100 -18 -31 -16 -52 11 -82 l23 -28 54 26
c30 15 90 43 134 64 44 20 102 52 130 70 27 19 54 34 59 34 4 0 34 15 65 34
37 23 63 47 76 73 31 62 137 183 189 219 31 21 45 25 75 19 48 -9 81 -47 81
-96 0 -29 7 -46 30 -69 33 -33 41 -87 17 -112 -35 -36 -47 -65 -47 -115 0
-103 -37 -150 -133 -168 -23 -5 -38 -15 -46 -32 -10 -22 -7 -30 31 -76 54 -66
116 -128 148 -150 34 -24 132 -23 152 1 37 44 38 61 38 608 0 583 -1 575 57
604 15 8 40 25 56 39 23 21 27 32 27 81 0 31 5 61 12 68 15 15 62 15 129 1 61
-13 159 4 159 28 0 18 61 17 107 -2 41 -17 263 -21 293 -5 10 5 21 24 25 41 8
36 -22 85 -86 138 -61 50 -102 62 -150 43 -45 -17 -189 -153 -189 -178 0 -13
-5 -15 -22 -9 -51 17 -137 17 -170 0 -18 -9 -56 -19 -84 -22 -47 -5 -53 -3
-77 23 -18 19 -27 40 -27 62 0 18 -7 49 -15 69 -22 53 -19 138 6 179 19 32 24
34 74 34 34 0 57 -5 65 -15 16 -20 68 -19 116 1 25 10 51 14 77 10 77 -13 167
32 167 82 0 19 -15 41 -56 79 -31 29 -63 53 -71 53 -9 0 -39 -13 -67 -29 -28
-16 -81 -38 -117 -50 -60 -20 -68 -20 -101 -7 -57 24 -61 34 -67 184 -5 115
-9 141 -26 164 -11 15 -26 28 -32 28 -7 0 -13 5 -13 10 0 6 -6 10 -14 10 -7 0
-32 25 -55 55 l-42 55 -88 0 c-67 0 -92 -4 -101 -15z
M1685 5784 c-14 -15 -25 -35 -25 -45 0 -17 -18 -66 -41 -111 -13 -25
-11 -57 6 -103 14 -41 19 -203 6 -258 -7 -31 -77 -107 -98 -107 -7 0 -13 -5
-13 -11 0 -11 -54 -9 -229 7 -55 5 -67 3 -78 -12 -18 -25 -16 -35 12 -66 l24
-27 44 25 c82 45 255 45 312 -1 l30 -23 -24 -64 c-12 -35 -27 -83 -32 -107 -5
-25 -30 -75 -58 -116 -26 -39 -56 -96 -66 -126 -10 -30 -24 -66 -31 -81 -17
-34 -44 -86 -58 -113 -6 -11 -44 -58 -85 -104 -40 -46 -89 -109 -109 -140 -51
-81 -249 -276 -305 -301 -46 -20 -131 -106 -148 -147 -5 -13 -13 -23 -19 -23
-5 0 -10 -9 -10 -20 0 -25 12 -25 64 -1 23 10 60 25 84 32 24 7 69 35 104 65
33 30 68 56 77 59 9 3 34 26 55 53 22 26 58 56 80 67 26 13 47 33 58 55 10 19
34 52 53 72 19 21 35 42 35 47 0 5 3 11 8 13 13 6 98 112 134 168 20 30 43 64
52 75 32 39 105 155 125 197 29 60 43 76 77 84 68 17 86 46 62 98 -14 32 3 98
34 130 27 28 58 95 58 128 0 19 13 38 46 67 26 23 52 41 59 41 23 0 24 27 2
38 -12 5 -42 27 -66 48 l-43 39 7 115 c4 63 10 121 15 129 10 18 -15 78 -46
112 -17 18 -24 37 -24 66 0 23 5 45 10 48 16 10 12 42 -6 49 -9 3 -33 6 -55 6
-30 0 -46 -6 -64 -26z
M2689 5285 c-13 -7 -57 -18 -97 -23 -80 -12 -98 -21 -104 -57 -7 -32
-2 -38 64 -68 77 -36 179 -38 229 -4 19 12 35 32 37 42 3 27 -34 86 -59 92
-10 3 -19 9 -19 13 0 15 -26 18 -51 5z
M3975 5248 c-30 -16 -75 -60 -75 -73 0 -22 46 -37 96 -32 65 7 125
21 149 35 19 11 19 11 -5 12 -13 0 -38 13 -55 29 -35 33 -81 46 -110 29z
M930 5109 c-25 -12 -72 -24 -104 -27 -33 -4 -61 -12 -64 -19 -3 -10
26 -13 125 -13 l128 0 16 29 c30 53 -18 67 -101 30z
M2108 4841 c-42 -21 -83 -43 -91 -50 -8 -6 -39 -20 -68 -30 l-53 -18
49 -48 50 -48 0 -138 c0 -128 -2 -139 -22 -161 -32 -34 -51 -85 -59 -158 -7
-68 -25 -110 -60 -145 -13 -13 -25 -43 -32 -83 -6 -34 -17 -75 -24 -90 -13
-26 -16 -27 -101 -30 l-88 -3 -16 -33 c-14 -31 -14 -37 2 -77 9 -24 31 -71 49
-104 l31 -60 58 -8 c72 -10 103 6 113 58 3 19 14 44 24 55 82 94 118 157 119
206 1 11 14 33 30 50 15 16 34 47 41 69 7 22 22 65 33 95 12 30 27 98 33 150
12 100 21 132 60 216 13 28 24 64 24 81 0 17 13 46 31 71 38 52 44 93 24 162
-9 30 -19 67 -22 83 -7 38 -39 35 -135 -12z
M3778 4770 c-25 -15 -22 -42 8 -63 24 -18 26 -18 69 3 51 25 57 31
45 49 -10 17 -99 25 -122 11z
M4917 4206 c-3 -8 3 -22 14 -32 10 -9 19 -23 19 -30 0 -7 6 -19 13
-26 6 -7 23 -33 36 -58 13 -25 39 -68 57 -97 19 -28 34 -55 34 -60 0 -4 21
-26 46 -48 43 -36 114 -133 114 -155 0 -5 13 -18 28 -29 16 -11 36 -38 46 -59
10 -22 32 -50 48 -62 27 -20 38 -21 90 -16 71 8 102 21 146 58 18 15 37 28 42
28 4 0 23 18 41 41 31 40 32 41 16 74 -32 67 -45 75 -120 75 -67 0 -69 1 -142
55 -41 30 -79 55 -85 55 -19 0 -89 50 -105 74 -9 13 -43 41 -76 62 -32 21 -59
42 -59 46 0 4 -4 8 -9 8 -16 0 -111 65 -111 77 0 6 -14 16 -31 22 -41 14 -46
14 -52 -3z
M4338 2793 c-10 -12 -17 -44 -20 -90 -4 -77 -19 -108 -72 -147 -21
-16 -45 -21 -111 -23 -46 -2 -95 -7 -110 -13 -35 -13 -119 -13 -204 2 -64 11
-72 10 -91 -7 -25 -22 -25 -40 -2 -63 43 -44 69 -52 170 -52 82 0 102 -3 115
-17 26 -29 57 -121 57 -168 0 -37 -5 -47 -29 -64 -16 -12 -32 -21 -36 -21 -3
0 -27 -10 -53 -22 -41 -20 -64 -23 -182 -24 -74 -1 -147 -2 -162 -3 -36 -1
-68 -34 -68 -67 0 -52 10 -54 254 -54 241 0 266 -4 286 -48 22 -48 25 -229 5
-337 -21 -119 -17 -163 24 -249 17 -36 31 -69 31 -72 0 -3 -12 -30 -27 -60
-42 -87 -47 -88 -280 -94 -139 -3 -206 -9 -214 -17 -16 -16 30 -85 67 -102 31
-14 114 -14 149 -1 14 5 90 11 168 12 129 3 145 1 169 -17 42 -31 39 -84 -10
-149 -21 -28 -59 -94 -85 -147 -36 -73 -56 -100 -81 -115 -19 -10 -59 -43 -90
-72 -32 -28 -62 -52 -67 -52 -6 0 -46 -37 -90 -82 -73 -76 -78 -84 -62 -96 26
-20 138 -11 191 15 24 12 56 25 72 28 33 7 89 57 140 125 19 25 58 69 87 98
33 34 53 62 53 76 0 25 55 86 77 86 7 0 21 4 31 9 9 5 36 19 60 30 24 12 53
30 64 41 25 23 32 24 61 9 34 -19 37 -27 37 -145 0 -133 7 -144 115 -195 39
-19 72 -37 75 -40 18 -24 97 -31 280 -25 264 8 346 16 401 44 25 12 60 22 78
22 43 0 68 14 86 50 13 26 13 32 -3 59 -9 17 -20 31 -24 31 -5 0 -8 5 -8 11 0
7 -13 34 -30 61 -17 27 -30 63 -30 81 0 17 -7 41 -15 51 -13 17 -18 18 -40 6
-36 -19 -49 -45 -69 -133 -11 -46 -30 -93 -46 -116 -26 -35 -35 -40 -92 -49
-95 -17 -335 -17 -387 -1 -24 7 -63 31 -88 53 -40 37 -45 47 -49 96 -4 34 0
77 10 115 19 69 21 182 5 235 -19 62 -6 88 48 101 57 15 97 55 119 122 14 41
17 87 16 227 0 101 -5 187 -11 203 -18 45 -13 106 9 134 29 38 26 85 -9 125
-61 68 -71 81 -71 89 0 12 35 29 59 29 11 0 46 11 77 25 36 16 75 25 108 25
29 0 85 12 131 28 79 27 125 29 191 7 17 -5 24 0 37 28 15 31 15 39 2 77 -16
46 -29 59 -87 90 -54 29 -70 25 -115 -24 -46 -50 -100 -86 -160 -105 -50 -16
-186 0 -214 25 -31 28 -49 80 -49 141 0 69 2 73 65 118 54 38 106 46 140 21
27 -20 71 3 78 41 11 57 -113 136 -140 90 -4 -8 -27 -27 -51 -42 -37 -25 -53
-28 -116 -28 -52 0 -81 5 -103 18 -32 19 -63 62 -63 89 0 39 -36 96 -70 113
-113 53 -186 66 -212 36z m163 -350 c16 -10 29 -23 29 -29 0 -6 7 -17 15 -24
23 -19 20 -124 -6 -176 -26 -55 -37 -64 -95 -70 -65 -8 -96 6 -119 52 -20 39
-72 114 -87 124 -9 7 -12 32 -10 76 3 46 44 63 155 64 66 0 96 -4 118 -17z
m127 -449 c12 -13 17 -33 16 -72 0 -48 -4 -58 -28 -77 -24 -19 -45 -23 -144
-29 -131 -7 -184 2 -213 35 -21 25 -25 66 -6 89 27 34 121 70 192 73 107 6
163 0 183 -19z m4 -318 c59 -32 63 -37 71 -77 12 -69 1 -352 -15 -378 -15 -24
-25 -27 -118 -36 -106 -10 -122 -7 -166 25 -23 16 -46 30 -51 30 -11 0 -33 49
-33 74 0 11 10 30 22 43 17 18 32 23 75 23 52 0 102 18 130 46 38 37 -11 104
-76 104 -44 0 -90 17 -92 34 -4 39 8 64 49 103 42 38 52 43 94 43 35 0 64 -9
110 -34z
M1273 2680 c-24 -10 -40 -34 -64 -100 -21 -60 -57 -115 -113 -175
-25 -28 -66 -91 -91 -141 -25 -50 -54 -99 -65 -109 -11 -10 -29 -36 -40 -59
-25 -53 -145 -181 -190 -204 -28 -14 -34 -22 -32 -42 1 -13 7 -29 12 -34 9 -9
74 26 100 55 8 9 35 27 60 40 25 13 52 29 62 37 9 8 33 12 55 10 56 -4 62 -31
62 -279 1 -180 -2 -214 -19 -269 -27 -83 -27 -183 0 -233 16 -29 20 -56 20
-130 0 -52 5 -109 11 -128 23 -69 80 -89 121 -43 13 14 37 41 55 60 l31 34
175 0 c151 0 182 3 220 19 25 11 51 28 58 39 24 33 129 39 129 7 0 -24 36 -45
79 -45 39 0 101 24 109 43 2 4 10 7 17 7 8 0 19 9 25 19 10 20 3 20 -362 23
-411 3 -395 1 -459 70 -33 35 -37 44 -39 103 -3 70 -3 165 -2 230 1 22 -1 159
-4 304 l-5 265 27 23 c25 21 37 23 130 23 95 0 103 2 109 21 4 11 4 23 1 27
-4 3 -50 5 -102 3 -89 -2 -98 -1 -118 21 -16 17 -21 35 -20 72 1 49 1 49 97
140 54 50 97 98 97 107 0 8 4 19 9 25 5 5 14 27 20 48 11 41 5 62 -30 99 -21
23 -100 33 -136 17z
M2321 2369 l-23 -9 26 -34 26 -34 -28 -7 c-32 -6 -82 9 -82 25 0 6
-23 -1 -51 -15 -28 -15 -74 -28 -102 -31 -85 -9 -104 -20 -99 -55 6 -41 35
-53 116 -50 84 3 93 -5 145 -132 16 -40 15 -521 -1 -550 -6 -12 -11 -49 -10
-83 2 -36 -4 -75 -13 -97 -10 -24 -15 -69 -15 -130 0 -51 -5 -120 -11 -152
-13 -71 3 -109 60 -142 62 -36 93 -38 121 -8 24 26 25 32 31 228 4 153 10 218
24 267 16 58 17 69 4 98 -7 18 -17 32 -21 32 -15 0 -8 130 8 162 13 25 14 49
9 132 -6 82 -4 109 9 140 11 25 16 68 16 127 0 86 -1 88 -30 109 -26 19 -30
27 -30 70 0 27 -5 52 -11 56 -8 4 -7 9 2 15 24 15 34 10 53 -26 15 -27 22 -32
33 -24 22 19 16 58 -12 69 -14 5 -25 14 -25 19 0 35 -66 51 -119 30z
M1711 2191 c-7 -5 -59 -7 -115 -4 -90 4 -142 -5 -125 -21 2 -3 80 -6
171 -8 126 -2 170 0 180 10 10 10 10 15 -2 22 -19 12 -90 13 -109 1z
M1650 1610 c-57 -31 -102 -42 -147 -36 -26 4 -64 10 -83 12 -52 8
-73 -12 -65 -59 8 -40 32 -50 55 -22 7 8 19 15 27 15 7 0 25 7 39 17 22 14 31
14 72 3 26 -7 76 -14 111 -17 75 -6 111 9 111 43 0 39 -78 68 -120 44z
M2012 1576 c-37 -13 -33 -26 9 -26 30 0 42 10 31 27 -5 7 -17 7 -40
-1z"/>
</g>
</svg>
