<?xml version="1.0" encoding="UTF-8" standalone="no"?>
<!-- Created with Inkscape (http://www.inkscape.org/) -->

<svg
   width="192"
   height="408"
   viewBox="0 0 192 408"
   version="1.1"
   id="svg5"
   inkscape:version="1.1.2 (b8e25be833, 2022-02-05)"
   sodipodi:docname="hello-page.svg"
   xmlns:inkscape="http://www.inkscape.org/namespaces/inkscape"
   xmlns:sodipodi="http://sodipodi.sourceforge.net/DTD/sodipodi-0.dtd"
   xmlns="http://www.w3.org/2000/svg"
   xmlns:svg="http://www.w3.org/2000/svg">
  <sodipodi:namedview
     id="namedview7"
     pagecolor="#505050"
     bordercolor="#eeeeee"
     borderopacity="1"
     inkscape:pageshadow="0"
     inkscape:pageopacity="0"
     inkscape:pagecheckerboard="0"
     inkscape:document-units="px"
     showgrid="false"
     inkscape:zoom="2.2009081"
     inkscape:cx="85.873644"
     inkscape:cy="176.74522"
     inkscape:window-width="2560"
     inkscape:window-height="1560"
     inkscape:window-x="-12"
     inkscape:window-y="-12"
     inkscape:window-maximized="1"
     inkscape:current-layer="layer1"
     height="400px" />
  <defs
     id="defs2">
    <rect
       x="779.67816"
       y="-0.90871578"
       width="527.50952"
       height="175.83652"
       id="rect32175" />
    <rect
       x="55.569427"
       y="105.75019"
       width="567.13879"
       height="135.45743"
       id="rect30365" />
    <inkscape:path-effect
       effect="skeletal"
       id="path-effect11939"
       is_visible="true"
       lpeversion="1"
       pattern="M 0,18.867925 C 0,8.4528302 8.4528302,0 18.867925,0 c 10.415094,0 18.867924,8.4528302 18.867924,18.867925 0,10.415094 -8.45283,18.867924 -18.867924,18.867924 C 8.4528302,37.735849 0,29.283019 0,18.867925 Z"
       copytype="single_stretched"
       prop_scale="1"
       scale_y_rel="false"
       spacing="0"
       normal_offset="0"
       tang_offset="0"
       prop_units="false"
       vertical_pattern="false"
       hide_knot="false"
       fuse_tolerance="0" />
    <inkscape:path-effect
       effect="skeletal"
       id="path-effect11355"
       is_visible="true"
       lpeversion="1"
       pattern="M 0,18.867925 C 0,8.4528302 8.4528302,0 18.867925,0 c 10.415094,0 18.867924,8.4528302 18.867924,18.867925 0,10.415094 -8.45283,18.867924 -18.867924,18.867924 C 8.4528302,37.735849 0,29.283019 0,18.867925 Z"
       copytype="single_stretched"
       prop_scale="1"
       scale_y_rel="false"
       spacing="0"
       normal_offset="0"
       tang_offset="0"
       prop_units="false"
       vertical_pattern="false"
       hide_knot="false"
       fuse_tolerance="0" />
    <inkscape:path-effect
       effect="skeletal"
       id="path-effect11351"
       is_visible="true"
       lpeversion="1"
       pattern="m 109.86624,0 c -0.8418,-0.30557 -44.64313,-26.11516 -45.98075,-26.80687 -1.15708,-0.59834 -1.79361,-3.97978 -6.60169,-4.96676 -2.74895,-0.56428 -7.31238,-1.53409 -10.14095,-2.15512 -9.30386,-2.04274 -14.37915,-1.43362 -20.01647,-2.50539 -7.1328,-1.35609 -26.6195,-4.88357 -26.98353,-4.88455 C 0.06425,-41.31891 0,-42.31617 0,-43.53483 c 0,-3.60057 19.02227,-0.36976 20.27171,-0.0805 1.80479,0.4178 2.47712,0.34 3.27105,-0.37849 0.91192,-0.82528 15.88898,2.48234 20.45724,2.8889 m 66.57014,30.78583 c -0.153,-5.75647 -0.4094,-7.95365 -0.9591,-8.21812 -0.7926,-0.38131 -44.77807,-11.23036 -44.9048,-11.10363 -0.12673,0.12674 0.37046,0.6007 1.10487,1.05324 1.45201,0.89475 43.92403,26.05603 44.29443,26.08074 0.4958,0.0331 0.6183,-2.02671 0.4646,-7.81223 z M 36.57497,-38.84118 c 1.30416,-0.4224 -1.99825,-1.6492 -6.70257,-2.48991 -3.93113,-0.70253 -5.86885,-0.54604 -5.86885,0.47397 0,0.27382 1.74137,0.80906 3.86971,1.18941 2.12834,0.38035 4.21395,0.9043 4.63468,1.16433 0.71174,0.43988 1.99506,0.33329 4.06703,-0.3378 z"
       copytype="single_stretched"
       prop_scale="1"
       scale_y_rel="false"
       spacing="0"
       normal_offset="0"
       tang_offset="0"
       prop_units="false"
       vertical_pattern="false"
       hide_knot="false"
       fuse_tolerance="0" />
    <inkscape:path-effect
       effect="skeletal"
       id="path-effect11305"
       is_visible="true"
       lpeversion="1"
       pattern="m 109.86624,0 c -0.8418,-0.30557 -44.64313,-26.11516 -45.98075,-26.80687 -1.15708,-0.59834 -1.79361,-3.97978 -6.60169,-4.96676 -2.74895,-0.56428 -7.31238,-1.53409 -10.14095,-2.15512 -9.30386,-2.04274 -14.37915,-1.43362 -20.01647,-2.50539 -7.1328,-1.35609 -26.6195,-4.88357 -26.98353,-4.88455 C 0.06425,-41.31891 0,-42.31617 0,-43.53483 c 0,-3.60057 19.02227,-0.36976 20.27171,-0.0805 1.80479,0.4178 2.47712,0.34 3.27105,-0.37849 0.91192,-0.82528 15.88898,2.48234 20.45724,2.8889 m 66.57014,30.78583 c -0.153,-5.75647 -0.4094,-7.95365 -0.9591,-8.21812 -0.7926,-0.38131 -44.77807,-11.23036 -44.9048,-11.10363 -0.12673,0.12674 0.37046,0.6007 1.10487,1.05324 1.45201,0.89475 43.92403,26.05603 44.29443,26.08074 0.4958,0.0331 0.6183,-2.02671 0.4646,-7.81223 z M 36.57497,-38.84118 c 1.30416,-0.4224 -1.99825,-1.6492 -6.70257,-2.48991 -3.93113,-0.70253 -5.86885,-0.54604 -5.86885,0.47397 0,0.27382 1.74137,0.80906 3.86971,1.18941 2.12834,0.38035 4.21395,0.9043 4.63468,1.16433 0.71174,0.43988 1.99506,0.33329 4.06703,-0.3378 z"
       copytype="single_stretched"
       prop_scale="1"
       scale_y_rel="false"
       spacing="0"
       normal_offset="0"
       tang_offset="0"
       prop_units="false"
       vertical_pattern="false"
       hide_knot="false"
       fuse_tolerance="0" />
    <inkscape:path-effect
       effect="skeletal"
       id="path-effect11066"
       is_visible="true"
       lpeversion="1"
       pattern="m 189.45717,14.527071 c -0.8418,-0.30557 -44.64313,-26.11516 -45.98075,-26.80687 -1.15708,-0.59834 -1.79361,-3.97978 -6.60169,-4.96676 -2.74895,-0.56428 -7.31238,-1.53409 -10.14095,-2.15512 -9.30386,-2.04274 -14.37915,-1.43362 -20.01647,-2.50539 -7.132802,-1.35609 -26.619502,-4.88357 -26.983532,-4.88455 -0.0786,-2.2e-4 -0.14285,-0.99748 -0.14285,-2.21614 0,-3.60057 19.02227,-0.36976 20.27171,-0.0805 1.804792,0.4178 2.477122,0.34 3.271052,-0.37849 0.91192,-0.82528 15.88898,2.48234 20.45724,2.8889 m 66.57014,30.7858295 c -0.153,-5.75647 -0.4094,-7.95365 -0.9591,-8.21812 -0.7926,-0.38131 -44.77807,-11.2303595 -44.9048,-11.1036295 -0.12673,0.12674 0.37046,0.6007 1.10487,1.05324 1.45201,0.89475 43.92403,26.05603 44.29443,26.08074 0.4958,0.0331 0.6183,-2.0267105 0.4646,-7.8122305 z M 116.1659,-24.314109 c 1.30416,-0.4224 -1.99825,-1.6492 -6.70257,-2.48991 -3.93113,-0.70253 -5.86885,-0.54604 -5.86885,0.47397 0,0.27382 1.74137,0.80906 3.86971,1.18941 2.12834,0.38035 4.21395,0.9043 4.63468,1.16433 0.71174,0.43988 1.99506,0.33329 4.06703,-0.3378 z"
       copytype="single_stretched"
       prop_scale="1"
       scale_y_rel="false"
       spacing="0"
       normal_offset="0"
       tang_offset="0"
       prop_units="false"
       vertical_pattern="false"
       hide_knot="false"
       fuse_tolerance="0" />
  </defs>
  <g
     inkscape:label="图层 1"
     inkscape:groupmode="layer"
     id="layer1">
    <path
       style="fill:none;fill-opacity:1;stroke:#000000;stroke-width:2.66906"
       d="m 131.95463,409.97715 c 3.50281,0 3.67803,0.27671 9.83348,0.27671 -2.36571,-47.41965 -10.12818,-234.59632 -10.96367,-297.01259 -2.93744,-1.68774 -5.08172,-3.95798 -7.38943,-3.22258 2.9174,83.25815 6.40839,243.27708 8.51962,299.95846 z"
       id="rect7038"
       sodipodi:nodetypes="ccccc" />
    <path
       d="m 125.64054,103.99051 c -1.1761,-0.29054 -2.2468,-0.41912 -2.3794,-0.28572 -0.1325,0.1334 -0.017,2.94255 0.2564,6.24255 0.6999,8.44364 -2.2301,-4.34173 -2.9919,-6.01371 -0.8469,-1.85877 -2.9177,-2.38022 -4.7319,-1.19153 -0.7729,0.50642 -10.22422,2.43553 -11.68371,4.0978 -0.91553,1.04273 -1.8789,2.24569 -2.1408,2.67323 -0.30346,0.4954 -4.517977,1.44273 -11.619047,2.61172 -6.12857,1.00889 -11.43641,1.83168 -11.79519,1.82842 -0.35879,-0.003 -0.80651,-0.58451 -0.99495,-1.29165 -0.71432,-2.68062 -10.80179,-1.19109 -11.88174,-1.36634 -1.83208,-0.29731 -9.0732,0.72162 -22.31882,3.14058 -5.36607,0.97998 -6.72358,0.84633 -6.72358,-0.66193 0,-0.28394 1.62227,-2.48251 3.60506,-4.88571 2.67792,-3.24573 14.86456,-18.73586 16.1953,-20.58542 0.15326,-0.21303 61.477177,-11.476667 62.689377,-11.484347 1.8955,-0.012 2.138,-0.15394 1.7325,-1.01397 -0.2594,-0.55 -0.5609,-4.99119 -0.6701,-9.86931 -0.1858,-8.29824 -0.1226,-8.95693 0.9818,-10.23029 1.9943,-2.29942 1.4423,-10.438897 -0.6969,-10.276167 -0.3818,0.029 -4.4228,4.015067 -8.9799,8.857827 -7.502,7.97219 -10,9.92057 -10,7.79982 0,-0.38636 12.44158,-16.312117 12.87786,-16.710457 0.17211,-0.15714 2.38414,-5.866697 2.95024,-6.586257 1.4949,-1.900472 1.2869,-2.40476 -1.1138,-2.700777 -1.1786,-0.145322 -32.272607,-4.961987 -31.519027,-5.61556 1.28447,-1.114017 1.74546,-1.158677 7.37315,-0.714286 6.97057,0.550432 27.497877,0.288621 28.182877,-0.359451 0.6865,-0.649558 -4.4181,-15.405505 -7.65933,-22.140886 -3.057,-6.352557 -3.34627,-7.597064 -1.76583,-7.597064 0.75331,0 2.03616,1.931778 4.64856,7 1.9845,3.85 11.9327,19.857144 12.6963,19.857144 0.7888,0 13.114,-12.566729 16.918,-17.249453 1.9624,-2.415771 4.0985,-4.560679 4.7469,-4.766462 2.6909,-0.85407 2.0246,0.56496 -3.5727,7.608708 -4.6851,5.895807 -11.9061,17.079477 -11.9061,18.439816 0,0.630364 0.3215,1.266546 0.7143,1.413736 1.7606,0.659626 13.6891,2.58899 19.4804,3.150823 7.9797,0.77414 10.4758,1.414914 11.2664,2.892158 0.5929,1.107708 -18.451,-0.620766 -24.6375,-0.626286 -8.2291,-0.0073 -9.0544,0.405406 -8.135,4.068317 0.7481,2.98045 9.1809,24.274147 8.7441,24.715937 -1.0301,1.04193 -10.3044,-16.93368 -11.1945,-17.95393 -0.4213,-0.48293 -1.165,-1.83293 -1.6526,-2.999997 -0.4876,-1.16707 -1.1111,-2.12194 -1.3855,-2.12194 -0.7173,0 -1.3114,3.136917 -1.4049,7.417887 -0.077,3.51064 10e-4,3.74299 1.4906,4.45975 l 1.5714,0.75615 v 8.57781 c 0,8.90399 -0.4689,11.22237 -2.0865,10.3171 -0.7462,-0.4176 -0.8754,-1.80025 -0.8031,-8.59223 0.075,-7.04143 -2.0169,-8.47041 -2.3022,-8.01974 -0.7218,1.14002 -0.6607,15.21613 0.068,15.66653 0.345,0.21321 -0.2955,4.28789 4.2589,1.90619 2.2113,-1.15641 3.7647,-1.51663 16.8648,-3.91078 3.3,-0.6031 7.9286,-1.51785 10.2857,-2.03277 7.1955,-1.57188 8.3586,-1.63926 8.7921,-0.50935 0.2347,0.61159 -17.874,26.683917 -18.3423,27.215277 -0.8193,0.92982 -6.126,1.99362 -8.341,1.67206 -0.5687,-0.0826 -1.3401,0.0967 -1.7143,0.39838 -0.3741,0.30168 -1.7727,0.7287 -3.108,0.94893 -2.3846,0.3933 -2.4233,0.43616 -2.1785,2.40986 0.2939,2.36971 0.2215,2.27288 2.0361,2.72291 1.2393,0.30737 2.2845,1.91968 2.2845,3.19582 0,1.79959 -0.3529,2.46506 -2.0485,3.86272 l -2.0486,1.68857 M 114.63949,99.95236 c 2.51425,-0.46887 6.88575,-1.2296 9.71425,-1.69052 5.7706,-0.94032 17.0401,-2.99136 18.9937,-3.45683 1.1753,-0.28005 16.7676,-22.715467 16.6101,-22.872987 -0.5983,-0.59826 -3.1407,2.03149 -5.8863,6.08851 -7.2509,10.714167 -10.2044,14.740207 -11.0683,15.087907 -1.6455,0.66231 -98.813377,17.2772 -100.934877,17.92859 l -1.71429,0.52635 2.19498,0.0491 c 1.20723,0.027 67.918707,-10.88212 72.090737,-11.66012 z m 17.16635,11.09981 c 0.2072,-0.33519 -0.463,0.74948 2e-4,3e-5 z m -42.594917,-1.63294 c 3.92857,-0.69046 7.93744,-1.37233 8.90861,-1.51525 1.6907,-0.24881 4.754887,-2.76935 4.128327,-3.39589 -0.55654,-0.55655 -22.356447,3.13971 -23.140247,3.92351 -0.51404,0.51403 1.61362,2.74837 2.35296,2.47096 0.33412,-0.12537 3.82178,-0.79287 7.75035,-1.48333 z m 43.428617,-1.97336 c 0,-1.12881 -1.5486,-2.25582 -2.5642,-1.86611 -1.2333,0.47325 -0.42614,3.28541 1.06386,4.00402 1.7542,0.846 1.50034,-1.21844 1.50034,-2.13796 z m 10.4365,-16.8314 c 0.4478,-0.52407 7.9965,-11.424217 9.083,-12.980457 3.328,-4.7668 3.3578,-4.48303 -0.4297,-4.0846 -3.0023,0.31581 -91.455247,17.127727 -91.722977,17.293197 -0.26775,0.16547 -12.05924,14.99091 -12.72296,16.10472 -0.59214,0.99369 94.897837,-15.28552 95.792637,-16.33286 z m -15.008,10.76143 c 0,-0.97129 -0.3809,-1.14285 -2.5377,-1.14285 -3.0097,0 -3.8176,0.81376 -1.6087,1.62036 2.6701,0.97503 4.1464,0.80501 4.1464,-0.47751 z m -3.3183,-58.585124 c 0.6695,-1.46954 2.6797,-2.353627 4.1065,-1.8061 0.5514,0.21156 0.8904,-0.310317 1.1198,-1.72353 0.3548,-2.18676 1.7999,-4.170949 3.0377,-4.170949 1.019,0 -0.9461,-3.374917 -0.9461,-4.695019 v -2.269367 l -2.7335,0.375956 c -2.2601,0.310841 -2.9933,0.171673 -4.233,-0.803521 -0.8247,-0.648713 -1.6179,-1.179477 -1.7627,-1.179477 -0.1447,0 -0.4086,1.083834 -0.5862,2.408522 -0.3972,2.960803 -1.561,3.877192 -4.924,3.877192 h -2.5924 l 2.1302,1.755888 c 2.3398,1.928677 2.7079,3.734095 1.273,6.244108 -1.1977,2.095107 -1.0813,2.285717 1.3949,2.285717 1.2386,0 2.4109,0.25714 2.6051,0.57143 0.6019,0.9738 1.4244,0.63434 2.1102,-0.87085 z"
       style="fill:#000000;fill-opacity:1;stroke-width:0.571429"
       id="path9021"
       sodipodi:nodetypes="cscssssscsssssssssssssscssssssssssssssssssssscscssssssssssssssssscssssssscsscccssssssssssssssssssssscscsscssscscsssccc" />
    <path
       id="path12153"
       style="fill:#000000;fill-opacity:1;stroke:#000000;stroke-width:1px;stroke-linecap:butt;stroke-linejoin:miter;stroke-opacity:1"
       d="m 15.233343,125.3104 -2.17969,2.17969 v 3.0039 l 35.5332,6.46485 0.43555,-1.625 76.369137,18.67773 v -3.16406 L 59.575133,134.22446 v -2.7832 l -21.88281,-4.02735 -2.07617,2.07618 z m 2.64062,2.16015 18.33594,3.40625 2.28711,-1.7832 19.31836,4.10742 v 2.30469 l -9.9082,-2.14258 -0.41407,1.54297 -29.80825,-5.46484 z"
       sodipodi:nodetypes="ccccccccccccccccccccc" />
    <path
       d="m 106.06174,216.31992 c 0,-0.67953 -0.67005,-2.37887 -1.489,-3.7763 -2.27564,-3.88307 -1.78914,-4.10616 9.86773,-4.52495 l 9.72187,-0.34926 0.9497,1.35587 c 0.5223,0.74573 0.9497,2.04078 0.9497,2.8779 0,2.1417 -2.2082,3.03742 -11.01243,4.46712 -9.02556,1.46564 -8.98757,1.46585 -8.98757,-0.0504 z m 19.4286,-5.01129 c 0,-0.83489 -6.3133,-1.51249 -12.14289,-1.30329 -5.33474,0.19145 -4.76633,-0.094 -4.38725,1.5632 0.17582,0.76862 1.05261,3.14694 3.27888,2.86904 4.02223,-0.83592 10.37967,-0.34848 13.25126,-3.12895 z"
       style="fill:#000000;stroke-width:0.571429"
       id="path15121" />
    <path
       style="fill:#000000;fill-opacity:1;stroke:none;stroke-width:1px;stroke-linecap:butt;stroke-linejoin:miter;stroke-opacity:1"
       d="m 61.163993,138.44926 16.47048,6.98575 46.855657,27.31827 v -2.83974 l -45.606177,-26.9207 z"
       id="path16352" />
    <path
       d="m 127.42162,261.63177 c -3.9519,-1.04757 -11.64348,-3.18499 -12.40647,-3.18499 -0.86786,0 -0.91843,2.08536 -0.63056,26 l 0.31297,26 h -11.97985 v -56 c 0,0 11.15421,0.18784 11.67793,0.90407 3.67339,1.09752 14.02807,6.57469 14.06156,2.85231 m -16.30616,6.95757 -0.005,-7.85747 -7.59707,6.5e-4 c 0.099,16.9759 0.50045,33.94491 1.13618,50.90881 2.29263,-0.11245 4.58525,-0.22492 6.87788,-0.33738 0,0 -0.40933,-38.39301 -0.41199,-42.71461 z"
       style="fill:#000000;stroke-width:0.571429"
       id="path17193"
       sodipodi:nodetypes="cssccccccccccc" />
    <path
       d="m 126.49968,407.67675 c -0.037,-0.23869 -0.4605,-10.43594 -0.861,-20.71429 -0.2216,-5.68467 -0.6413,-10.0361 -1.0117,-10.4901 -0.4931,-0.60417 -2.3446,-0.72881 -8.36929,-0.56339 l -7.73611,0.2124 -0.0462,-5.72231 c -0.0402,-4.98721 -0.69064,-26.09138 -1.05586,-34.26036 -0.0694,-1.55307 -2.04797,-4.90057 -2.75511,-5.00999 -1.21249,-0.18762 -1.18672,-0.2523 0.45251,-1.13578 1.36912,-0.7379 3.73524,-0.96972 11.14284,-1.09173 l 12.74812,1.55588 c -0.062,2.01662 -13.05768,0.7911 -13.05768,0.7911 -4.24285,0 -7.71427,0.0972 -7.71427,0.21593 0,0.11876 0.35284,1.08305 0.78408,2.14286 0.55973,1.37552 0.91199,6.66897 1.23103,18.49836 0.2458,9.11428 0.22481,21.42857 0.22481,21.42857 0,0 10.19493,0.15979 11.61983,0.35509 2.3589,0.32332 7.28685,-8.59894 7.67075,-9.80854 -0.51936,1.41588 0.64702,0.99352 -0.34132,4.01013 -3.24723,9.9112 -1.04051,25.1904 -1.68323,37.87189 -0.113,1.02143 -0.4344,1.85714 -0.7143,1.85714 -0.2799,0 -0.5188,-0.0643 -0.5308,-0.14285 z"
       style="fill:#000000;stroke-width:0.571429"
       id="path18077"
       sodipodi:nodetypes="cssscsssscccssscscscscc" />
    <path
       style="fill:#000000;stroke-width:0.571429"
       d="m 158.74399,356.85256 c 0.33645,-15.29621 0.22188,-32.9042 -0.004,-46.31961 l -0.27157,-16.0339 c 4.1535,-2.99757 1.71942,-6.18445 0.50428,-8.9322 -0.0867,-1.19476 -0.32462,-2.46782 -0.45874,-3.57143 -2.03898,2.43117 -2.39083,11.76534 -1.1964,16.27135 0.61558,2.06039 0.38641,66.1106 -0.31442,87.87648 -0.32195,9.99856 -0.69455,12.55342 -1.61387,11.06593 -0.28569,-0.46226 -0.41846,-34.96943 -0.15076,-39.18253 0.0911,-1.43302 -0.14773,-1.74478 -1.60734,-2.0986 -4.56018,-1.09119 -8.27997,-2.67269 -13,-3.45453 -0.55,0.0123 -1,-0.25549 -1,-0.59502 0,-1.21695 10.38341,0.6015 13.80841,2.41829 1.96788,1.04385 2.22031,-0.57631 2.0603,-13.22354 l -0.15443,-12.20576 c -5.67307,-0.54848 -10.88794,-3.69432 -15.594,-3.80434 -0.43353,1.30059 -1.26314,0.59932 -1.26314,-1.06773 0,-0.94286 0.25714,-1.71429 0.57143,-1.71429 5.06066,1.7505 11.3548,4.41968 16.12144,4.67741 0.80624,-10.44174 0.44975,-24.98634 0.50409,-32.24883 -0.36114,-2.02801 -0.27913,-7.82051 -1.60053,-7.85715 -3.89071,-0.8343 -7.6105,-2.29059 -11.45351,-3.4066 -2.27857,-0.65874 -4.14286,-1.44746 -4.14286,-1.7527 6.98501,-1.35272 13.86415,6.36761 17.16291,-0.28166 0.83972,-0.51898 0.61612,-16.28606 -0.23549,-16.60589 -0.55365,-0.20792 -10.42125,-1.67435 -14.64171,-2.17592 -2.25693,-0.26821 -2.28571,-0.28713 -2.28571,-1.5024 5.77144,-0.0954 14.68163,2.60449 20.05059,3.12248 -0.0751,-3.34174 -0.36399,-5.32267 0.0893,-9.32926 -6.83974,0.0815 -15.31921,0.1238 -21.04335,-0.73117 0.67756,-1.50111 2.68253,-2.55989 3.90013,-3.83079 5.67598,-0.34111 10.05496,-0.60498 15.28901,-1.33545 -0.0309,-2.55448 0.19696,-5.65408 -0.52376,-7.88492 -1.66261,0.77771 -2.3887,4.2654 -3.2455,2.05281 0.10349,-3.26879 5.22677,-4.36805 4.20415,-7.09401 -0.95743,-2.53652 -3.89603,-3.56197 -11.06648,-3.86175 -3.33932,-0.1396 -6.28415,-0.38526 -6.54407,-0.5459 -0.6079,-2.57508 -1.1957,-8.62766 -0.60748,-9.97972 0.27642,0 2.45123,1.96131 4.83291,4.35848 l 4.33031,4.35848 c 4.12259,-1.10941 9.12055,0.005 12.61989,-1.2697 0,-0.33345 -1.15714,-2.02693 -2.57142,-3.76329 -2.41821,-2.9689 -3.21415,-4.82683 -2.06783,-4.82683 0.27699,0 1.23214,0.95516 2.12257,2.12257 0.89043,1.16741 2.07809,2.5817 2.63925,3.14285 0.56116,0.56116 1.02029,1.53703 1.02029,2.16861 0,1.0094 0.30684,1.12275 2.53646,0.93701 l 2.53645,-0.2113 c 2.85574,-2.6504 5.37584,-6.04315 8.5982,-8.15974 -0.53526,4.00257 -4.0498,5.88587 -7.76337,9.48091 l 0.58292,1.30637 c 0.42001,0.94129 0.38106,1.62959 -0.13941,2.46299 -0.61111,0.97854 -0.55298,1.34527 0.37748,2.38175 2.14209,2.38614 4.75649,6.67117 4.41116,7.22992 -0.65838,1.06528 -1.25213,0.56355 -4.05207,-3.42409 -1.54116,-2.19489 -3.11188,-3.99489 -3.4905,-4 -0.37861,-0.005 -0.81393,0.82644 -0.96737,1.84786 -0.83577,4.80523 -1.03422,9.46785 -2.88404,14.14286 l -1.27869,3.14286 c 0.86721,8.63076 -1.06054,31.35153 3.57104,34.82965 1.72543,1.13055 1.2949,1.97491 -1.58216,3.10297 l -1.88465,0.73894 0.17634,16.37052 c 0.15105,14.0224 0.30719,16.51509 1.08857,17.3785 4.67518,1.79139 6.59795,1.1977 12.02077,2.72809 2.39349,1.32802 3.11143,2.28194 1.71429,2.27776 -2.88121,-1.42415 -5.57929,-2.24933 -8.30121,-1.73661 l 0.0773,1.95457 c 0.1302,3.29415 0.94408,9.10163 1.22201,18.35561 0.2385,7.94103 1.6631,42.96637 2.16732,53.28571 l 0.17451,3.57143 h -1.2615 -1.2615 l -0.32339,-4.71429 c -0.89959,-13.67051 -0.30541,-25.43766 -1.40325,-39.48378 l -0.37596,-4.48378 c -1.65972,-0.60171 -3.34879,-1.16631 -5.051,-1.59526 -0.59192,17.69533 -0.23893,31.20228 -0.0919,50.2775 l -0.93675,-2e-4 c -2.50462,-11.89315 -1.51598,-35.16759 -1.37868,-51.14305 z m 7.39047,-0.71428 c 0.59149,-3.01131 -9.7e-4,-23.81275 -0.71631,-25.14935 -1.45323,-1.58787 -2.59844,-1.27922 -4.64441,-1.27922 v 13.07289 c 1.01534,8.28354 -2.27323,13.53173 4.66889,14.84929 0.21074,0.0428 0.52206,-0.62933 0.69183,-1.49361 z M 158.3814,251.56685 c -0.20756,-2.72292 -8.01995,-0.28577 -10.75049,0.96204 3.96886,1.42097 6.06526,0.90241 10.57143,0.89513 z m 2.63891,-1.59895 c 0.64457,-3.12918 1.92432,-14.30347 1.5029,-14.73079 -1.39235,0.39673 -1.85074,1.51116 -2.72126,2.75831 0.27491,2.00613 -0.17395,18.29157 1.21836,11.97248 z m 1.46774,-16.92479 c 0.80218,-0.11196 1.7249,0.1784 2.10439,0.66218 0.85236,1.08663 2.10013,0.0599 1.80289,-1.48359 -0.23703,-1.2308 -3.66146,-2.11233 -5.13732,-1.32248 -0.5393,0.28863 -1.6403,0.52477 -2.44668,0.52477 -1.72445,0 -1.76499,0.15553 -0.53131,2.03837 1.43702,1.86388 2.38531,0.1231 4.20803,-0.41925 z m -17.7143,-3.19055 c -2e-5,-0.45303 -3.71542,-3.57142 -4.25517,-3.57142 -0.46952,0 -0.38512,0.88729 0.24104,2.53422 1.0937,1.75477 2.43916,1.68733 4.01413,1.0372 z m 20.24978,-7.42857 c 0.48604,-5.60465 1.47215,-11.12453 2.11312,-11.82857 0.66118,-0.72622 0.62869,2.31263 -0.0884,8.27214 -0.78584,6.53053 -1.11655,7.985 -1.81559,7.985 -0.39194,0 -0.46287,-1.50231 -0.2091,-4.42857 z"
       id="path21688"
       sodipodi:nodetypes="scccccsssccsssccscccccccsscccccccccsccsccsssssscccssssssccccscsccccsssccccccccccsccccscsccscccccsssscccsccssssss" />
    <text
       xml:space="preserve"
       id="text32173"
       style="font-size:24px;line-height:1.25;font-family:sans-serif;white-space:pre;shape-inside:url(#rect32175)"
       transform="translate(-11.813306,12.722021)" />
  </g>
</svg>
