<?xml version="1.0" encoding="UTF-8" standalone="no"?>
<svg
   width="240"
   height="40"
   version="1.1"
   id="svg13"
   sodipodi:docname="wordmark.svg"
   inkscape:version="1.1.2 (b8e25be833, 2022-02-05)"
   xmlns:inkscape="http://www.inkscape.org/namespaces/inkscape"
   xmlns:sodipodi="http://sodipodi.sourceforge.net/DTD/sodipodi-0.dtd"
   xmlns="http://www.w3.org/2000/svg"
   xmlns:svg="http://www.w3.org/2000/svg">
  <sodipodi:namedview
     id="namedview15"
     pagecolor="#505050"
     bordercolor="#eeeeee"
     borderopacity="1"
     inkscape:pageshadow="0"
     inkscape:pageopacity="0"
     inkscape:pagecheckerboard="0"
     showgrid="false"
     inkscape:zoom="8"
     inkscape:cx="100.25"
     inkscape:cy="76.25"
     inkscape:window-width="2560"
     inkscape:window-height="1560"
     inkscape:window-x="-12"
     inkscape:window-y="-12"
     inkscape:window-maximized="1"
     inkscape:current-layer="g11" />
  <defs
     id="defs3">
    <path
       id="a"
       d="M.375-.375h251.5v43.25H.375z" />
  </defs>
  <g
     aria-label="matling.fit()"
     style="font-size:32px;line-height:1.25;font-family:'Fira Code';-inkscape-font-specification:'Fira Code';letter-spacing:-2px;white-space:pre;shape-inside:url(#a)"
     transform="translate(5.218 2.444)"
     id="g11">
    <path
       d="m 12.062,11.984 c 0.558,0 1.088667,0.120333 1.592,0.361 0.514,0.240667 0.935333,0.705667 1.264,1.395 0.328,0.689333 0.492,1.696 0.492,3.02 V 29.625 H 12.85 V 17.202 c 0,-1.082667 -0.06567,-1.864667 -0.197,-2.346 -0.131333,-0.481333 -0.508667,-0.722 -1.132,-0.722 -0.514667,0 -1.029,0.164 -1.543,0.492 -0.503333,0.317333 -0.9956667,0.842333 -1.477,1.575 V 29.625 H 5.925 V 17.202 c 0,-1.082667 -0.065667,-1.864667 -0.197,-2.346 -0.1313333,-0.481333 -0.5086667,-0.722 -1.132,-0.722 -0.5366667,0 -1.0566667,0.164 -1.56,0.492 -0.492,0.317333 -0.9786667,0.842333 -1.46,1.575 V 29.625 H -0.968 V 12.345 H 1.2 l 0.164,2.002 c 0.47,-0.667333 0.995,-1.225333 1.575,-1.674 0.5906667,-0.459333 1.3183333,-0.689 2.183,-0.689 0.656,0 1.274,0.158667 1.854,0.476 0.58,0.306667 1.0066667,0.908333 1.28,1.805 0.4706667,-0.678 1.001333,-1.225 1.592,-1.641 0.590667,-0.426667 1.329,-0.64 2.215,-0.64 z M 33.74,25.85 c 0,0.689333 0.114667,1.192667 0.344,1.51 0.229333,0.317333 0.584667,0.552667 1.066,0.706 l -0.672,1.936 c -0.744,-0.098 -1.395,-0.333 -1.953,-0.705 -0.558,-0.383333 -0.963,-0.957667 -1.215,-1.723 -0.623333,0.798667 -1.4,1.405667 -2.33,1.821 -0.93,0.404667 -1.958333,0.607 -3.085,0.607 -1.728667,0 -3.090667,-0.486667 -4.086,-1.46 -0.995333,-0.973333 -1.493,-2.264333 -1.493,-3.873 0,-1.783333 0.694667,-3.150667 2.084,-4.102 1.389333,-0.952 3.396667,-1.428 6.022,-1.428 h 2.544 v -1.444 c 0,-1.247333 -0.366667,-2.128 -1.1,-2.642 -0.722,-0.525333 -1.728667,-0.788 -3.02,-0.788 -0.568667,0 -1.235667,0.071 -2.001,0.213 -0.766,0.131333 -1.597667,0.355667 -2.495,0.673 l -0.722,-2.084 c 1.061333,-0.393333 2.057,-0.672333 2.987,-0.837 0.93,-0.164 1.816,-0.246 2.658,-0.246 2.155333,0 3.769333,0.503333 4.842,1.51 1.082667,0.995333 1.624,2.352 1.624,4.07 z m -7.14,2.052 c 0.853333,0 1.668667,-0.213333 2.446,-0.64 0.776667,-0.437333 1.416667,-1.039 1.92,-1.805 V 21.01 H 28.47 c -1.903333,0 -3.248667,0.328 -4.036,0.984 -0.777333,0.656667 -1.166,1.537333 -1.166,2.642 0,1.072 0.273333,1.887 0.82,2.445 0.558667,0.546667 1.396,0.82 2.512,0.82 z m 26.177,0.853 c -0.590667,0.394 -1.307333,0.700667 -2.15,0.92 -0.842,0.218 -1.668,0.327 -2.478,0.327 -1.86,0 -3.293333,-0.486667 -4.3,-1.46 C 42.843,27.568667 42.34,26.316 42.34,24.784 V 14.478 h -3.97 v -2.133 h 3.971 V 8.423 l 2.757,-0.328 v 4.25 h 5.973 l -0.328,2.133 h -5.645 v 10.273 c 0,0.962667 0.251667,1.696 0.755,2.2 0.514,0.502667 1.362,0.754 2.544,0.754 0.645333,0 1.241333,-0.07667 1.788,-0.23 0.546667,-0.153333 1.055333,-0.35 1.526,-0.59 z"
       style="fill:#8b5955;fill-opacity:1"
       id="path5"
       sodipodi:nodetypes="cccsccsssccccsssccccccccsccccccscccccssscscscsccccscccccccscscccccscsccccccccccscsscc" />
    <path
       d="M63.479 5.387v19.971q0 1.28.787 1.822.804.525 2.068.525.788 0 1.493-.164.706-.164 1.412-.443l.738 2.018q-.706.345-1.756.607-1.034.28-2.346.28-2.298 0-3.726-1.264-1.427-1.28-1.427-3.528V7.57h-5.3V5.387ZM83.19 12.345v15.097h4.873v2.183H75.1v-2.183h5.333V14.528h-5.169v-2.183Zm-2.2-8.09q.92 0 1.461.558.558.558.558 1.362 0 .837-.558 1.411-.542.558-1.46.558-.87 0-1.428-.558-.558-.574-.558-1.411 0-.804.558-1.362t1.427-.558zM92.135 29.625v-17.28h2.347l.213 2.396q1.05-1.33 2.626-2.035 1.592-.722 3.085-.722 2.543 0 3.692 1.346 1.165 1.345 1.165 3.741v12.554h-2.757V19.106q0-1.772-.197-2.855-.196-1.1-.82-1.592-.624-.509-1.936-.509-1.018 0-1.92.443-.887.443-1.592 1.116-.69.657-1.149 1.33v12.586ZM123.875 10.507l.853 2.593q-1.1.344-2.347.427-1.247.082-2.707.082 1.493.689 2.248 1.788.755 1.083.755 2.56 0 1.707-.772 3.036-.77 1.33-2.231 2.084-1.445.755-3.496.755-.87 0-1.46-.082-.575-.082-1.116-.246-.394.263-.657.722-.246.46-.246.952 0 .623.492 1.034.493.41 1.822.41h3.118q1.74 0 3.118.624 1.395.623 2.182 1.673.805 1.05.805 2.396 0 2.544-2.167 3.906-2.15 1.362-6.088 1.362-2.757 0-4.348-.574-1.592-.558-2.282-1.723-.672-1.15-.672-2.905h2.494q0 1 .394 1.657t1.428.969q1.033.328 2.97.328 1.903 0 3.101-.328 1.215-.312 1.79-.952.59-.624.59-1.56 0-1.23-1.116-1.854-1.116-.623-2.79-.623h-3.085q-2.232 0-3.298-.985-1.05-.984-1.05-2.264 0-.837.475-1.625.493-.788 1.428-1.395-1.493-.788-2.199-1.953-.706-1.165-.706-2.822 0-1.756.87-3.102.87-1.362 2.429-2.133 1.559-.771 3.594-.771 2.182-.017 3.544-.18 1.362-.181 2.33-.51.985-.328 2.003-.77zm-7.877 3.479q-2.084 0-3.085 1.132-.985 1.116-.985 2.856 0 1.756 1.017 2.888 1.018 1.132 3.118 1.132 1.838 0 2.79-1.066.968-1.067.968-2.97 0-1.954-.968-2.955-.952-1.017-2.855-1.017z"
       style="fill:#8c7455;fill-opacity:1"
       id="path7" />
    <path
       d="M131.163 27.098q0-.804.377-1.444.378-.657 1.018-1.034.656-.394 1.477-.394.837 0 1.493.394.656.377 1.034 1.034.377.64.377 1.444 0 .804-.377 1.477-.378.656-1.034 1.05-.656.377-1.493.377-.82 0-1.477-.377-.64-.394-1.018-1.05-.377-.673-.377-1.477zM155.42 5.042q1.394 0 2.526.247 1.133.246 2.15.689l-.886 2.051q-.837-.36-1.772-.541-.936-.18-1.937-.18-1.805 0-2.724.705-.902.705-.902 2.166v3.512h5.858l-.295 2.166h-5.563v13.768h-2.757V15.857h-4.12V13.69h4.12v-3.447q0-1.608.82-2.773.837-1.165 2.265-1.789 1.427-.64 3.216-.64zM171.651 13.69v13.752h4.874v2.183H163.56v-2.183h5.333V15.857h-5.17V13.69zm-2.199-8.237q.919 0 1.46.558.559.558.559 1.362 0 .837-.558 1.411-.542.558-1.461.558-.87 0-1.428-.558-.558-.574-.558-1.411 0-.804.558-1.362t1.428-.558zM194.316 28.755q-.886.591-2.15.92-1.264.327-2.478.327-2.79 0-4.3-1.46-1.51-1.46-1.51-3.758V14.478h-3.97v-2.133h3.97V8.423l2.758-.328v4.25h5.973l-.328 2.133h-5.645v10.273q0 1.444.755 2.2.77.754 2.543.754.968 0 1.789-.23.82-.23 1.526-.59zM201.965 18.138q0 2.56.443 4.595.443 2.018 1.313 3.708.87 1.674 2.182 3.184 1.33 1.526 3.085 3.085l-1.444 1.51q-2.658-2.183-4.562-4.464-1.887-2.28-2.904-5.087-1.001-2.806-1.001-6.531 0-3.742 1-6.548 1.018-2.806 2.905-5.087 1.904-2.281 4.562-4.447l1.444 1.51q-1.772 1.575-3.101 3.101-1.313 1.51-2.183 3.184-.87 1.657-1.312 3.692-.427 2.018-.427 4.595zM225.4 18.138q0-2.577-.442-4.595-.427-2.035-1.297-3.692-.87-1.674-2.199-3.184-1.312-1.526-3.085-3.101l1.444-1.51q2.675 2.166 4.562 4.447 1.888 2.281 2.889 5.087 1.017 2.806 1.017 6.548 0 3.725-1.017 6.531-1.001 2.806-2.889 5.087-1.887 2.281-4.562 4.464l-1.444-1.51q1.756-1.559 3.069-3.085 1.33-1.51 2.199-3.184.87-1.69 1.313-3.708.443-2.035.443-4.595z"
       style="fill:#b3b3b3"
       id="path9" />
  </g>
</svg>
