<?xml version="1.0" encoding="UTF-8" standalone="no"?>
<!-- Created with Inkscape (http://www.inkscape.org/) -->

<svg
   width="512"
   height="512"
   viewBox="0 0 135.46667 135.46667"
   version="1.1"
   id="svg5"
   inkscape:version="1.1.2 (b8e25be833, 2022-02-05)"
   sodipodi:docname="avatar-black.svg"
   xmlns:inkscape="http://www.inkscape.org/namespaces/inkscape"
   xmlns:sodipodi="http://sodipodi.sourceforge.net/DTD/sodipodi-0.dtd"
   xmlns="http://www.w3.org/2000/svg"
   xmlns:svg="http://www.w3.org/2000/svg"
   xmlns:rdf="http://www.w3.org/1999/02/22-rdf-syntax-ns#"
   xmlns:cc="http://creativecommons.org/ns#"
   xmlns:dc="http://purl.org/dc/elements/1.1/">
  <title
     id="title12896">物灵个人图标</title>
  <sodipodi:namedview
     id="namedview7"
     pagecolor="#ffffff"
     bordercolor="#cccccc"
     borderopacity="1"
     inkscape:pageshadow="0"
     inkscape:pageopacity="1"
     inkscape:pagecheckerboard="0"
     inkscape:document-units="px"
     showgrid="false"
     inkscape:zoom="2.0798883"
     inkscape:cx="230.30083"
     inkscape:cy="252.8982"
     inkscape:window-width="2560"
     inkscape:window-height="1560"
     inkscape:window-x="-12"
     inkscape:window-y="-12"
     inkscape:window-maximized="1"
     inkscape:current-layer="layer1" />
  <defs
     id="defs2" />
  <g
     inkscape:label="Layer 1"
     inkscape:groupmode="layer"
     id="layer1">
    <rect
       id="rect1852"
       width="67.733337"
       height="67.733337"
       x="33.866669"
       y="33.866669"
       style="stroke-width:0.264311;fill:#cccccc;fill-opacity:1" />
    <g
       id="g112"
       transform="matrix(0.26422563,0,0,0.26422563,4.8373035,-3.9804614)"
       style="fill:#888888;fill-opacity:1">
      <path
         style="fill:#888888;stroke:none;stroke-width:1.26964;fill-opacity:1"
         d="m 249.27761,114.03673 c -15.63219,37.91212 -33.61017,149.78049 -65.22137,175.71956 -15.66335,-7.70527 -96.795831,-17.37626 -147.455975,-17.53167 36.560316,17.49732 107.676845,12.67934 131.829225,43.22614 1.34734,-2.18789 -1.50921,21.81438 -49.8314,54.27433 -55.835582,37.19321 -61.684974,31.89718 -87.751548,52.42971 77.679368,1.63793 118.203178,-55.40489 170.528308,-94.22038 69.98182,25.3324 125.1543,69.63733 178.31583,110.24965 21.9902,9.03149 55.3726,52.02496 62.55591,18.40646 -6.7596,-65.26513 -226.05785,-137.33172 -226.82968,-166.29482 16.55799,-40.65831 57.94528,-134.46872 61.2293,-168.00067 -2.5338,-15.93517 -18.95837,-13.31437 -27.3686,-8.25831"
         id="path102"
         sodipodi:nodetypes="cccccccccccc" />
    </g>
    <rect
       style="fill:#b3b3b3;stroke-width:0.272315;fill-opacity:1"
       id="rect10961"
       width="25.400002"
       height="25.400002"
       x="84.666672"
       y="25.400002" />
  </g>
  <metadata
     id="metadata12894">
    <rdf:RDF>
      <cc:Work
         rdf:about="">
        <dc:title>物灵个人图标</dc:title>
      </cc:Work>
    </rdf:RDF>
  </metadata>
</svg>
